<svg xmlns="http://www.w3.org/2000/svg" width="87.453" height="79.329" viewBox="0 0 87.453 79.329"><g transform="translate(0 0.025)"><g transform="translate(0 40.145)" fill="none" stroke-linecap="round"><path d="M0,0H41.826V39.159H0Z" stroke="none"/><path d="M 4.000003814697266 4.000003814697266 L 4.000003814697266 35.1593017578125 L 37.82578277587891 35.1593017578125 L 37.82578277587891 4.000003814697266 L 4.000003814697266 4.000003814697266 M 3.814697265625e-06 3.814697265625e-06 L 41.82578277587891 3.814697265625e-06 L 41.82578277587891 39.1593017578125 L 3.814697265625e-06 39.1593017578125 L 3.814697265625e-06 3.814697265625e-06 Z" stroke="none" fill="#132241"/></g><g transform="translate(0.083 -0.025)" fill="none" stroke-linecap="round" stroke-linejoin="round"><path d="M43.743,31.452H0L21.871,0,43.743,31.452h0Z" stroke="none"/><path d="M 36.08905029296875 27.45200157165527 L 21.87126731872559 7.006256580352783 L 7.65360164642334 27.45200157165527 L 36.08905029296875 27.45200157165527 M 43.74268341064453 31.45200157165527 L 1.705322233647166e-06 31.45200157165527 L 21.87125205993652 1.739501954034495e-06 L 43.74268341064453 31.45200157165527 Z M 43.74268341064453 31.45200157165527 L 43.74234008789063 31.45148086547852 L 43.74234008789063 31.45139122009277 L 43.74268341064453 31.45200157165527 Z" stroke="none" fill="#132241"/></g><g transform="translate(51.714)" fill="none" stroke="#132241" stroke-width="4"><ellipse cx="16.413" cy="16.326" rx="16.413" ry="16.326" stroke="none"/><ellipse cx="16.413" cy="16.326" rx="14.413" ry="14.326" fill="none"/></g><path d="M2.043,0A2.135,2.135,0,0,1,4,2.287L3.923,45.573a2.157,2.157,0,0,1-1.965,2.3A2.135,2.135,0,0,1,0,45.583L.077,2.3A2.157,2.157,0,0,1,2.043,0Z" transform="translate(83.184 40.967) rotate(45)" fill="#132241"/><path d="M1.957,0A2.157,2.157,0,0,1,3.923,2.3L4,45.583A2.135,2.135,0,0,1,2.043,47.87a2.157,2.157,0,0,1-1.965-2.3L0,2.287A2.135,2.135,0,0,1,1.957,0Z" transform="translate(87.453 73.994) rotate(135)" fill="#132241"/></g></svg>