<svg width="1183" height="512" viewBox="0 0 1183 512" fill="none" xmlns="http://www.w3.org/2000/svg">
<path d="M256 0C114.628 0 0 114.628 0 256C0 397.372 114.628 512 256 512C397.372 512 512 397.372 512 256C512 114.628 397.372 0 256 0Z" fill="#0DBA4B"/>
<path d="M340.713 166.015V251.001C340.713 251.001 340.713 257.758 340.713 261.329C340.713 274.843 334.049 286.764 323.77 294.29C316.711 299.454 307.901 302.531 298.356 302.531H256.565C256.395 302.531 256.169 302.531 256 302.531C255.831 302.531 255.661 302.531 255.435 302.531C232.28 302.805 213.644 321.154 213.644 343.788C213.644 366.586 232.619 385.044 256 385.044C279.381 385.044 298.356 366.586 298.356 343.788C298.356 332.361 307.844 323.132 319.534 323.132C331.055 323.132 340.43 332.086 340.713 343.238C340.713 343.403 340.713 343.568 340.713 343.733V343.843C340.713 374.387 323.657 401.031 298.356 415.314C285.875 422.346 271.418 426.356 256 426.356C240.582 426.356 226.125 422.346 213.644 415.314C188.738 401.251 171.852 375.266 171.287 345.381V342.194C171.57 327.746 175.692 314.232 182.639 302.476C190.093 290.005 200.767 279.567 213.644 272.316C226.125 265.284 240.582 261.274 256 261.274H289.603C294.46 261.274 298.356 257.483 298.356 252.759V169.805C298.356 169.311 298.356 168.741 298.356 168.246C298.356 167.752 298.379 167.486 298.356 166.839C297.566 144.7 278.929 126.955 256.056 126.955H256C232.619 126.955 213.644 145.469 213.644 168.267C213.644 191.066 232.619 209.579 256 209.579H256.056C266.222 209.579 274.75 216.501 276.839 225.73C277.178 227.159 277.348 228.697 277.348 230.235C277.348 241.222 268.537 250.177 257.355 250.836C256.904 250.836 256.452 250.891 256.056 250.891H256C255.831 250.891 255.661 250.891 255.492 250.891C240.243 250.781 226.012 246.771 213.7 239.849C188.399 225.565 171.344 198.867 171.344 168.267C171.287 137.723 188.343 111.024 213.644 96.7407C226.125 89.6539 240.582 85.6436 256 85.6436H256.056C271.474 85.6436 285.932 89.6539 298.356 96.6857C323.036 110.585 339.866 136.349 340.713 166.015Z" fill="white"/>
<path d="M684.78 340.713C709.985 340.713 730.149 332.196 744.552 322.732C751.513 318.474 754.874 312.559 754.874 304.279V260.037C754.874 251.757 748.392 245.369 739.991 245.369H693.182C685.98 245.369 679.979 251.047 679.979 258.145C679.979 265.242 685.98 270.684 693.182 270.684H726.308V301.676C715.986 309.247 701.583 314.215 685.74 314.215C651.414 314.215 628.609 289.137 628.609 255.069V254.596C628.609 222.894 652.134 196.16 683.1 196.16C701.343 196.16 713.106 201.364 723.908 209.172C726.308 210.828 729.189 212.484 733.029 212.484C741.191 212.484 747.672 205.86 747.672 198.052C747.672 192.374 744.552 188.352 741.671 186.223C726.308 175.34 709.505 169.425 684.3 169.425C633.65 169.425 597.644 208.699 597.644 255.069V255.542C597.644 303.806 632.21 340.713 684.78 340.713Z" fill="white"/>
<path d="M862.217 340.476C906.146 340.476 934.471 315.635 934.471 266.189V185.513C934.471 177.469 927.99 171.082 919.828 171.082C911.427 171.082 904.945 177.469 904.945 185.513V267.608C904.945 298.128 888.862 313.506 862.697 313.506C836.292 313.506 820.209 297.181 820.209 266.425V185.513C820.209 177.469 813.728 171.082 805.566 171.082C797.165 171.082 790.684 177.469 790.684 185.513V267.608C790.684 315.635 818.529 340.476 862.217 340.476Z" fill="white"/>
<path d="M1040.53 340.24H1042.21C1050.61 340.24 1056.13 335.744 1059.26 328.41L1118.31 191.191C1119.03 189.535 1119.75 187.169 1119.75 185.04C1119.75 177.233 1113.27 171.082 1105.1 171.082C1098.14 171.082 1092.86 175.577 1090.94 180.545L1041.73 300.967L993.243 181.491C990.842 175.34 985.801 171.082 978.12 171.082C969.718 171.082 963.237 177.469 963.237 185.277C963.237 187.879 963.957 190.008 964.917 192.138L1023.73 328.41C1026.85 335.744 1032.37 340.24 1040.53 340.24Z" fill="white"/>
<path d="M1152.73 324.625C1152.73 332.669 1159.21 339.057 1167.61 339.057C1175.77 339.057 1182.25 332.669 1182.25 324.625V185.513C1182.25 177.469 1175.77 171.082 1167.61 171.082C1159.21 171.082 1152.73 177.469 1152.73 185.513V324.625Z" fill="white"/>
</svg>
