<svg width="1999" height="669" viewBox="0 0 1999 669" fill="none" xmlns="http://www.w3.org/2000/svg">
<g clip-path="url(#clip0_173_432)">
<path d="M668.899 334.4C669.199 519.1 518.199 671.4 329.699 669C148.599 666.6 -2.50067 517.9 -0.000665301 329.3C2.49933 148.4 151.199 -2.80005 339.999 -5.44824e-05C520.799 2.69995 668.899 150.3 668.899 334.4ZM334.399 7.09995C154.399 7.29995 10.9993 151.2 7.19933 326.7C3.19933 513.5 151.999 658.7 327.899 661.8C513.799 665.1 658.699 516.9 661.899 341C665.199 154.7 515.099 6.79995 334.399 7.09995Z" fill="white"/>
<path d="M598 336.6C598.2 480.8 480 600 332.6 598C191.1 596.1 72.9002 479.7 75.0002 332.3C77.0002 190.9 193.4 72.9999 340.4 74.9999C481.9 76.8999 598.1 192.6 598 336.6ZM82.1002 336.2C82.0002 476.2 194.3 588 330.8 590.8C475.4 593.7 588.2 478.6 590.9 342.2C593.8 197.5 478.4 84.5999 341.8 82.0999C197.1 79.3999 81.9002 196.1 82.1002 336.2Z" fill="white"/>
<path d="M624.5 279.3C627.2 290.8 633.7 296.1 645.8 294.7C642.3 298.5 639.7 301.6 636.9 304.5C635.6 305.8 635 306.7 635.6 308.7C636.7 312.3 637.1 316.1 638.2 321.5C629 313.8 620.5 313.1 612.1 321.4C611.1 315.3 615.2 310.4 613.2 306.2C611.3 302.3 606.9 299.6 603.4 296.1C608.5 294.9 614 295.1 617.4 292.4C620.7 289.8 621.9 284.4 624.5 279.3Z" fill="white"/>
<path d="M59.3992 321.6C50.0992 315.7 41.6992 314.3 32.9992 322.5C36.7992 312 35.9992 303.5 25.6992 298.4C26.6992 296.2 28.0992 296.7 28.9992 296.7C39.2992 297.1 43.3992 290.3 45.7992 281.9C47.2992 281.9 47.6992 282.7 47.8992 283.4C50.4992 293.1 56.7992 297.5 67.5992 295.6C65.5992 299.7 62.4992 301.8 60.0992 304.2C57.8992 306.4 56.7992 308.2 57.8992 311.4C58.7992 314.5 58.8992 317.7 59.3992 321.6Z" fill="white"/>
<path d="M569.9 489.9C575.6 494.1 581.4 498.1 587.1 502.4C588.4 503.4 591.4 504 589.2 506.8C587.1 509.5 586.1 506.5 585 505.7C578.2 500.9 571.6 496 564.9 491.1C563.6 490.1 561.7 489.6 563 486.9C564.3 484.3 565.7 484.3 568 484.8C575.4 486.6 582.8 488.3 591 490.2C585.7 483.4 581.2 477.3 576.3 471.3C574.5 469.1 574.2 467.4 575.9 465.3C577.7 463 579.2 465.2 580.5 465.9C588 469.8 595.4 473.9 602.7 478C603.6 478.5 605.6 478.5 604.5 480.7C603.5 482.6 602.4 482.2 601 481.4C594.8 478.1 588.6 474.7 581.6 471C582.4 474.7 584.8 476.4 586.3 478.5C589.2 482.5 592.5 486.3 595.7 490.1C596.7 491.3 597.7 492.4 596.7 494C595.6 495.7 593.9 494.9 592.6 494.6C586.1 493.1 579.7 491.4 573.3 490C572.2 489.8 571 488.5 569.8 489.9C570.2 489.5 570.1 489.2 569.6 489C569.5 489 569.3 489.1 569.2 489.1C569.4 489.5 569.7 489.7 569.9 489.9Z" fill="white"/>
<path d="M56.7008 214.2C63.8008 217.5 70.4008 220.6 77.2008 223.6C78.7008 224.3 80.0008 224.7 79.0008 226.7C78.0008 228.7 76.9008 227.9 75.4008 227.2C67.8008 223.7 60.1008 220.4 52.4008 216.8C51.1008 216.2 48.6008 216 49.2008 213.8C49.7008 211.9 51.0008 210.4 53.4008 210.2C62.4008 209.4 71.3008 207.2 81.5008 206.9C74.1008 203.7 67.5008 200.9 61.0008 197.9C59.6008 197.3 56.9008 197.2 58.3008 194.3C59.8008 191.4 61.4008 193.7 62.8008 194.3C70.3008 197.6 77.9008 201 85.3008 204.6C86.3008 205.1 88.8008 204.1 88.1008 206.9C87.6008 208.9 86.5008 209.9 84.3008 210.1C75.6008 211.1 66.9008 212.4 58.2008 213.5C58.0008 213.5 57.6008 213.8 56.7008 214.2Z" fill="white"/>
<path d="M613.5 269.8C617.8 270.9 621.4 267.9 625.4 267.5C628.6 267.2 631.7 265.7 634.9 265.1C636.1 264.9 638.2 263.1 638.7 266.2C639.1 268.5 637.6 268.6 636.1 268.9C627.6 271 619.1 273 610.6 275.1C609.4 275.4 608 276.8 607.1 275.1C606.2 273.5 606.3 271.7 607.8 270.1C611.9 266 615.9 261.8 619.9 257.7C622.2 255.4 624.4 253 626.3 249.8C620.3 251.3 614.4 252.8 608.4 254.1C606.2 254.6 603 257.3 601.9 254.1C600.5 250.1 605 251 607.1 250.4C613.8 248.5 620.5 246.8 627.3 245.3C629.2 244.9 631.6 242.7 633.4 245.6C635 248.3 632.8 250.1 631.3 251.6C625.9 257.2 620.3 262.7 614.8 268.2C614.3 268.7 613.9 269.2 613.5 269.7C613.4 270 613.3 270.3 613.2 270.5C613.4 270.4 613.6 270.3 613.8 270.2C613.9 270.2 613.7 270 613.5 269.8Z" fill="white"/>
<path d="M428.101 602.8C427.401 607.1 430.401 610.3 431.401 614.1C432.501 617.9 434.001 621.6 435.401 625.3C436.001 626.8 436.101 627.7 434.401 628.4C432.301 629.3 432.301 627.9 431.801 626.6C428.501 617.8 425.201 609 422.001 600.2C421.701 599.4 420.301 598.2 422.201 597.4C424.001 596.7 425.501 596.2 427.301 597.6C432.601 601.8 438.101 605.9 443.501 610C444.801 611 445.701 612.5 448.001 612.6C447.301 605.7 443.301 600 441.601 593.6C441.201 592.1 439.101 590.4 442.401 589.5C445.201 588.7 444.601 591.2 445.001 592.3C448.001 599.9 451.001 607.6 453.701 615.4C454.201 616.9 456.401 618.5 454.401 620.2C452.301 621.9 450.501 620.8 448.701 619.3C441.901 613.8 434.901 608.4 428.001 603C427.701 602.8 427.501 602.6 427.201 602.4C427.201 602.5 427.101 602.7 427.101 602.8C427.401 603.2 427.701 603.2 428.101 602.8ZM448.801 613.2C448.701 613.1 448.601 612.9 448.401 612.9C448.301 612.9 448.201 613.1 448.101 613.2C448.301 613.3 448.501 613.4 448.601 613.5C448.601 613.5 448.701 613.4 448.801 613.2Z" fill="white"/>
<path d="M344.3 33.5001C343.8 41.5001 343.3 48.9001 342.9 56.3001C342.8 57.9001 343.2 60.0001 340.5 59.7001C338.2 59.4001 338.9 57.4001 339 56.2001C339.5 47.8001 340.2 39.4001 340.9 31.0001C341 29.8001 339.9 27.7001 342.4 27.5001C344.4 27.3001 345.8 28.1001 346.7 30.0001C350.6 38.1001 355.9 45.4001 359.8 55.0001C360.2 46.2001 360.6 38.9001 360.9 31.5001C361 30.0001 360.8 28.4001 363.1 28.5001C365.6 28.6001 365 30.4001 364.9 31.7001C364.4 40.3001 363.9 48.9001 363.3 57.5001C363.2 58.7001 363.9 60.5001 361.9 60.7001C360.1 60.9001 358.6 60.4001 357.5 58.3001C353.5 50.1001 349 42.1001 344.3 33.5001Z" fill="white"/>
<path d="M75.9002 450.8C69.7002 453.8 63.5002 456.8 57.3002 459.7C56.3002 460.1 55.1002 462.3 53.9002 459.5C52.8002 457.2 54.1002 456.8 55.6002 456.1C63.6002 452.3 71.6002 448.4 79.6002 444.5C80.6002 444 81.7002 442.3 82.8002 444.2C83.5002 445.5 84.7002 446.6 83.3002 448.6C78.2002 456.1 73.4002 463.8 68.6002 471.4C68.4002 471.8 67.6002 472.2 68.4002 472.7C68.5002 472.8 68.9002 472.2 69.2002 472C75.6002 469 81.9002 465.9 88.3002 463C89.2002 462.6 90.2002 460.9 91.4002 463.2C92.6002 465.5 91.1002 465.7 89.8002 466.3C81.7002 470.4 73.7002 474.6 65.6002 478.6C64.8002 479 63.7002 480.4 62.7002 478.7C61.7002 477 61.4002 475.5 62.6002 473.7C66.4002 467.9 70.1002 462 73.8002 456.1C74.8002 454.6 75.8002 453.1 76.9002 451.6C77.2002 451.2 77.5002 450.7 77.8002 450.3C76.9002 449.9 76.3002 449.9 75.9002 450.8Z" fill="white"/>
<path d="M55.9995 350C48.1995 350.7 40.8995 351.4 33.4995 352C32.1995 352.1 30.3995 353.3 29.9995 350.7C29.5995 347.9 31.9995 348.5 33.2995 348.3C41.1995 347.4 49.0995 346.5 57.0995 345.9C58.5995 345.8 60.8995 344.5 61.7995 346.6C62.8995 349.1 61.0995 350.7 59.0995 352.3C52.4995 357.3 46.1995 362.6 39.2995 368C44.8995 367.4 50.3995 366.6 55.9995 366.4C58.4995 366.3 62.6995 363.7 63.1995 367.5C63.7995 372 59.0995 369.6 56.8995 369.9C49.4995 371 42.0995 371.7 34.6995 372.5C33.6995 372.6 32.2995 373.5 31.8995 371.7C31.4995 370.2 30.8995 368.9 32.7995 367.4C40.5995 361.9 48.0995 356.1 55.9995 350Z" fill="white"/>
<path d="M273.9 41.6C275 48.5 276.1 55.3 277.4 62.2C277.8 64.1 278.1 65.5 275.7 65.9C272.8 66.4 274 64 273.8 62.9C272.2 54.6 270.7 46.3 269.3 38C269.1 36.8 267.8 34.8 269.9 34.2C271.6 33.7 273.4 33.6 274.9 35.4C280.6 42.3 287.5 48.1 293.2 56.9C291.8 48.6 290.6 41.7 289.4 34.7C289.1 33 287.8 30.8 290.7 30.3C293.4 29.8 292.8 32.3 293.1 33.7C294.6 41.7 296 49.7 297.3 57.7C297.5 59.1 299.2 61 296.6 61.9C294.6 62.6 293.1 61.8 291.8 60.3C288.9 56.9 285.9 53.6 283 50.2C280.3 47.1 277.5 44.1 274.7 41.1C274.4 41.3 274.2 41.5 273.9 41.6Z" fill="white"/>
<path d="M432.401 67.2001C434.501 60.9001 436.601 54.4001 438.701 47.9001C439.201 46.4001 439.201 44.2001 441.701 45.1001C444.301 46.0001 442.701 47.8001 442.201 49.2001C439.801 57.1001 437.301 65.0001 434.701 72.8001C434.301 73.9001 434.701 76.3001 432.401 76.0001C430.501 75.7001 429.301 74.6001 428.801 72.4001C426.701 63.6001 424.501 54.9001 422.001 45.1001C419.801 52.1001 418.101 58.3001 415.901 64.4001C415.201 66.3001 415.901 70.6001 412.401 69.7001C408.401 68.6001 411.801 65.3001 412.201 63.5001C414.101 56.3001 416.601 49.3001 418.901 42.3001C419.301 41.0001 418.901 38.7001 421.601 39.0001C423.901 39.3001 425.001 40.5001 425.501 42.8001C427.301 50.7001 429.201 58.6001 431.101 66.4001C431.301 66.7001 431.401 67.3001 432.401 67.2001Z" fill="white"/>
<path d="M101.801 495.5C95.7006 500.3 89.5006 505.1 83.4006 509.9C82.2006 510.9 81.3006 511 80.2006 509.6C78.9006 507.9 80.2006 507.3 81.2006 506.6C88.2006 501.3 95.2006 496 102.401 490.9C103.401 490.2 104.201 487.5 106.301 489.4C108.101 491 108.401 492.7 107.301 495.1C103.901 502.8 100.801 510.6 97.5006 518.4C97.3006 518.8 97.3006 519.3 97.2006 520.4C103.401 515.7 109.001 511.2 114.801 507C115.501 506.5 116.301 503.8 118.101 506.1C119.701 508.1 118.701 509.1 116.901 510.3C112.801 513.1 108.901 516.2 104.901 519.2C101.101 522 97.3006 524.9 93.5006 527.6C90.7006 525.6 91.2006 523.1 92.3006 520.6C95.2006 513.6 98.3006 506.7 101.101 499.6C101.701 498.3 103.701 497.1 101.801 495.5C102.101 495.6 102.401 495.9 102.701 496.1C102.801 496 102.801 495.8 102.901 495.7C102.501 495.6 102.201 495.5 101.801 495.5Z" fill="white"/>
<path d="M608.5 243.3C599.7 243.3 593.2 236.7 593.3 227.9C593.4 219.5 601.6 212.7 611.5 212.6C620.4 212.5 626.9 218.6 627 227.1C627 235.8 618.5 243.3 608.5 243.3ZM612.5 216.9C608.8 216.7 605.3 218.1 602 220.2C598 222.8 595.9 228.4 597.3 232.2C598.9 236.6 603.6 239.5 608.9 238.9C612.6 238.5 615.9 237.1 618.9 234.9C622.9 231.9 624.5 228 622.9 223.2C621.2 218.5 617.5 216.7 612.5 216.9Z" fill="white"/>
<path d="M282.2 619.8C282 632.7 273.7 640.4 262.7 637.9C258.3 636.9 255.3 634.3 253.5 630.3C250.5 623.6 252.6 613.3 258 608.3C262.7 604 268 602.7 273.9 605.4C280.3 608.2 282.3 613.4 282.2 619.8ZM278 619.7C277.9 613.7 275 609 270.8 608C266.2 606.9 261.2 609.5 258.8 614.7C256.7 619.3 255.5 624 257.6 629C260.2 635.3 267.9 637.3 272.7 632.6C276.1 629.1 278.1 624.8 278 619.7Z" fill="white"/>
<path d="M469.001 612C460.501 611.9 452.901 603 452.801 593.3C452.801 584.6 459.201 577.9 467.501 577.9C475.801 577.9 483.601 587.3 483.701 597.3C483.901 605.5 477.301 612 469.001 612ZM457.001 594.2C457.401 598 459.801 602.6 464.001 606.1C467.001 608.6 470.501 609 474.201 607.3C478.001 605.5 479.501 602.4 479.601 598.5C479.701 593.3 477.301 588.9 473.801 585.2C470.601 581.9 466.801 580.8 462.501 582.7C458.401 584.5 456.901 588 457.001 594.2Z" fill="white"/>
<path d="M530 567.1C529.9 575.1 523.1 582 515.5 581.7C506.9 581.4 498.5 572 498.6 562.6C498.7 554.8 505.2 548 512.6 547.9C521.2 547.9 530.1 557.7 530 567.1ZM526 567.9C526 562.3 521.1 555.2 515.5 552.8C508.9 550 501.9 555.1 502.6 562.2C503.3 569 506.7 574 513.1 576.7C519.6 579.5 525.9 575.1 526 567.9Z" fill="white"/>
<path d="M510.6 117.8C507 117.4 501.7 113.9 496.8 109.5C495.3 108.2 496.1 107.3 497 106.2C502.4 99.1001 507.8 92.0001 513.2 84.9001C513.8 84.1001 514.2 82.4001 515.8 83.4001C521.4 86.9001 527.2 90.0001 530 96.8001C533.8 106.1 522.4 118.7 510.6 117.8ZM512.2 114.1C518.8 114.1 524.8 108.9 526.3 102C527.3 97.6001 523.5 91.8001 518.4 88.8001C516.3 87.5001 515.5 88.4001 514.4 89.8001C511 94.3001 507.7 98.8001 504.3 103.3C500.3 108.6 500.6 109.9 506.8 112.7C508.6 113.5 510.4 114.5 512.2 114.1Z" fill="white"/>
<path d="M177.099 101C177.099 108.8 170.399 115.8 162.799 115.9C154.199 116.1 146.099 107.3 145.999 97.6999C145.899 89.4999 152.199 82.9999 160.199 82.8999C169.099 82.9999 176.999 91.3999 177.099 101ZM173.099 102.1C173.099 94.2999 165.899 86.4999 159.099 86.6999C154.099 86.8999 149.999 91.2999 149.999 96.5999C150.099 104.1 156.999 112 163.599 112C168.999 112 173.099 107.8 173.099 102.1Z" fill="white"/>
<path d="M66.3999 388.5C66.4999 398.2 61.8999 403.5 52.9999 405.1C44.0999 406.7 37.8999 403.1 34.9999 395C34.8999 394.7 34.7999 394.4 34.6999 394C31.2999 383.3 31.7999 382.4 42.4999 380.2C48.7999 378.9 55.1999 377.9 61.3999 376.5C63.4999 376 63.8999 376.6 64.4999 378.3C65.7999 381.8 66.1999 385.6 66.3999 388.5ZM62.9999 387.3C62.8999 386.8 62.4999 384.8 62.2999 382.9C62.0999 380.9 61.0999 380.6 59.2999 381C52.4999 382.4 45.6999 383.7 38.8999 385.2C37.8999 385.4 36.7999 385.6 36.5999 387.2C35.9999 393.9 41.3999 400.7 47.9999 401C57.5999 401.6 63.0999 397.1 62.9999 387.3Z" fill="white"/>
<path d="M235.901 54.4001C235.101 44.8001 243.501 39.3001 250.601 39.2001C259.101 39.1001 266.201 47.9001 265.801 57.8001C265.501 66.5001 258.901 72.7001 250.301 72.4001C241.601 72.2001 235.701 64.7001 235.901 54.4001ZM261.201 55.8001C261.301 53.9001 260.401 50.5001 258.101 47.4001C255.301 43.5001 251.501 41.9001 246.901 43.2001C242.501 44.5001 240.301 47.9001 240.101 52.5001C239.901 56.4001 240.501 60.0001 242.801 63.3001C246.101 68.1001 250.001 69.9001 254.501 68.4001C259.001 67.1001 261.301 63.4001 261.201 55.8001Z" fill="white"/>
<path d="M625.3 427.9C625.5 432.2 623.9 436 622.6 439.9C621.8 442.4 620.4 442.6 618.1 441.8C610.4 439 602.6 436.3 594.8 433.7C591.8 432.7 591 431.1 592 428.3C592.9 425.8 593.8 423.4 594.7 420.9C596.8 415.4 600.4 411.5 606.5 411C613.4 410.5 619 413.4 623.3 418.9C625.3 421.5 625.2 424.7 625.3 427.9ZM619.5 437.7C620.1 435.9 620.8 434.3 621.3 432.5C623.6 424.1 619.8 418 610.8 415.6C604 413.8 598.4 417.5 596.2 425.4C595.5 428.1 595.6 429.9 598.9 430.9C605.8 432.9 612.6 435.4 619.5 437.7Z" fill="white"/>
<path d="M399.3 618C400.5 617.7 401.4 617.4 402.4 617.1C406.2 616.1 411.3 616.6 413.5 613.8C415.6 611 412.6 606.7 411.9 603C411.7 601.7 411.3 600.3 413.2 599.9C415.2 599.5 415.6 600.5 416.1 602.3C418.3 611.3 420.6 620.2 422.9 629.1C423.4 630.9 422.9 631.8 421.1 632.4C418.7 633.2 419.2 631.4 418.9 630.3C418 627 417 623.7 416.3 620.3C415.9 618.3 415.2 617.3 413.1 618.2C412.9 618.3 412.8 618.4 412.6 618.4C408.7 619.5 403.4 619.5 401.1 622.1C398.9 624.7 402.8 629.3 403.1 633.2C403.3 635.1 404.8 637.2 401.5 637.6C398.7 637.9 399.2 635.6 398.9 633.9C396.9 625.4 394.8 616.9 392.6 608.4C392.2 606.7 391.8 605.8 393.8 605.1C396 604.3 396.4 605.7 396.8 607.2C397.7 610.8 398.5 614.4 399.3 618Z" fill="white"/>
<path d="M540.1 558.3C533 558 525.3 550.9 524 543.5C522.9 536.8 528.7 526.6 534.8 524.2C536.3 523.6 536.9 524.1 537.6 525.2C538.4 526.6 537.2 526.7 536.4 527.2C534.8 528.3 533.1 529.5 531.7 530.9C526.2 536.5 526.8 545 532.9 550.3C539.3 555.8 546 555.3 551.2 549.1C554.7 545 551 543.2 549.1 540.6C546.6 537.2 545.2 539.9 543.9 541.5C542.7 542.9 542 542.8 540.8 541.7C539.3 540.3 540.7 539.8 541.4 539C546.9 532.6 546.9 532.6 552.7 538.8C558.7 545.3 558.7 545.3 553 552.1C549.2 556.5 545.1 558.5 540.1 558.3Z" fill="white"/>
<path d="M192.2 80.6999C197.9 81.5999 200.4 86.4999 204.3 89.6999C205.2 90.3999 205.2 91.0999 204.3 91.5999C203.2 92.1999 202 93.2999 200.7 91.9999C199 90.3999 197.5 88.6999 195.8 87.0999C194.2 85.5999 192.7 83.9999 190.3 84.1999C185.2 84.6999 184 87.1999 186.6 91.7999C187.7 93.5999 188.7 95.4999 189.7 97.3999C190.5 98.7999 190.5 99.5999 188.8 100.5C187.3 101.3 186.6 100.6 186 99.5999C181.4 91.5999 176.9 83.4999 172.4 75.4999C171.8 74.4999 171.6 73.5999 172.7 72.9999C176 71.0999 178.8 68.1999 182.5 67.2999C185.9 66.4999 189.5 66.3999 192 69.6999C194.9 73.1999 194.3 76.8999 192.2 80.6999ZM190.1 76.3999C190.1 72.7999 188.1 70.4999 184.7 70.6999C181.8 70.7999 178.5 71.4999 177.2 74.8999C176.8 75.8999 182.5 83.9999 183.2 83.9999C185.7 83.7999 190.1 79.0999 190.1 76.3999Z" fill="white"/>
<path d="M100.799 159.1C106.699 156.7 110.699 161.3 115.499 162.2C116.299 162.4 117.099 163 116.299 163.9C115.499 164.8 114.999 166.5 113.299 165.9C111.399 165.3 109.499 164.6 107.799 163.7C105.899 162.8 103.999 162.3 101.999 162.6C98.9991 163 97.3991 165.5 96.3991 167.8C95.5991 169.4 98.4991 169.8 99.6991 170.9C101.199 172.4 103.199 173.4 104.899 174.8C105.799 175.6 108.099 175.8 106.499 178C105.199 179.9 104.199 179.5 102.599 178.3C95.2991 172.9 87.8991 167.6 80.4991 162.4C79.0991 161.4 79.2991 160.9 79.8991 159.7C81.1991 157.2 82.6991 154.8 84.5991 152.7C87.2991 149.7 90.2991 146.7 94.7991 148.3C99.3991 149.9 101.599 153.5 100.799 159.1ZM98.0991 158.4C97.5991 154.7 95.5991 152.5 91.9991 152.2C89.1991 152 84.1991 156.4 84.1991 158.8C84.1991 159.7 91.6991 166.3 92.6991 165.8C95.7991 164.4 97.0991 161.4 98.0991 158.4Z" fill="white"/>
<path d="M459.101 53.3C463.601 53.6 468.101 55.2001 472.001 58.2001C472.701 58.8001 474.301 59.0001 473.101 60.7001C472.001 62.2001 471.501 61.8001 470.101 60.9001C464.801 57.4001 459.101 54.9001 453.101 59.2001C448.601 62.4001 446.601 67.2 447.201 72.6C447.701 77.6 451.001 80.7 455.701 82.7C460.201 84.6 461.001 81.6 462.401 78.7C463.701 75.9 464.001 73.9 460.301 73.1C459.101 72.9 457.701 72.5001 458.601 70.4001C459.601 68.1001 460.801 69.8 461.801 70.1C469.401 72.7 469.401 72.8 466.201 79.6C462.001 88.4 460.701 88.9 451.601 84.2C444.801 80.8 441.701 74.5001 443.201 67.4001C444.801 59.2001 451.201 53.4 459.101 53.3Z" fill="white"/>
<path d="M635.701 390.3C635.701 393.3 634.201 394.2 631.301 394C628.501 393.8 625.701 393.8 622.901 394.8C619.401 396 619.101 399 619.101 401.6C619.101 403.9 621.801 403.3 623.301 403.8C625.501 404.5 627.701 405.1 630.001 405.5C631.701 405.8 632.101 406.6 631.901 408.2C631.601 410.3 630.301 409.8 629.001 409.5C620.301 407.4 611.701 405.4 603.001 403.3C601.901 403 600.601 403 600.701 401.3C601.001 396.5 601.301 391.6 604.601 387.8C608.901 382.8 616.001 384.1 618.701 390.4C619.501 392.3 619.501 393 621.201 391.2C621.801 390.6 623.001 390.3 624.001 390.2C627.701 390.3 631.501 390.3 635.701 390.3ZM616.901 396.1C617.101 391.4 614.401 389.7 610.801 389.4C607.801 389.1 603.601 393.7 604.401 397.5C605.401 402.6 610.801 401 614.101 401.6C617.701 402.2 615.801 397.7 616.901 396.1Z" fill="white"/>
<path d="M181.1 603.1C172 603 166.6 595.8 169.6 587.6C172.2 580.4 177.2 574.5 180.8 567.8C181.5 566.5 182.4 566.4 183.6 567.1C185.1 568 184.9 568.9 184.1 570.3C181.7 574.2 179.5 578.3 177 582.2C175.7 584.3 174.3 586.3 173.5 588.7C172.1 592.7 172.3 596.3 176.3 598.7C180.2 601 184.1 599.9 187 595.5C190.4 590.3 193.6 584.8 196.9 579.5C197.7 578.1 197.9 575.8 200.7 577.6C203.3 579.3 201.2 580.5 200.6 581.6C197.9 586.3 195.1 591 192.1 595.6C189.5 599.7 186.5 603.4 181.1 603.1Z" fill="white"/>
<path d="M383.301 63.8C375.801 63.7 371.601 59.1 371.701 51.5C371.801 45 373.301 38.7 374.501 32.4C374.701 31.3 374.201 29.1 376.901 29.7C379.401 30.2 379.001 31.5 378.701 33.3C377.601 39.7 376.001 46 375.801 52.5C375.701 56.4 376.901 59.3 381.201 60.1C385.401 61 388.301 59.4 389.901 55.4C392.301 49.3 392.401 42.8 393.601 36.5C393.901 34.7 393.701 32.6 396.601 33.1C399.401 33.6 397.901 35.8 397.801 37.1C397.001 43 396.201 49 394.701 54.7C393.101 60.8 388.701 63.9 383.301 63.8Z" fill="white"/>
<path d="M536.999 139.2C531.699 139.5 528.399 136.8 525.999 132.7C523.499 128.5 524.199 124.2 527.099 120.7C531.499 115.4 536.499 110.5 541.199 105.4C541.999 104.5 542.699 103.6 543.899 105C545.099 106.3 545.399 107.1 543.899 108.6C540.099 112.3 536.599 116.3 532.999 120.1C532.099 121.1 531.099 122 530.399 123.1C528.299 126.7 527.599 130.3 530.999 133.5C533.799 136.2 538.599 136.1 541.799 133C546.199 128.8 550.399 124.3 554.599 119.8C555.899 118.5 556.799 116.8 558.799 119C560.999 121.3 558.299 121.8 557.499 122.7C553.899 126.8 550.199 130.8 546.299 134.6C543.699 137.4 540.799 139.8 536.999 139.2Z" fill="white"/>
<path d="M574.399 190C571.099 187.9 571.799 185.8 573.899 183.5C575.499 181.7 578.299 179.7 577.499 177.5C576.399 174.3 573.799 171.7 571.799 168.8C571.099 167.8 570.299 168.7 569.599 168.8C567.699 169.3 565.699 169.7 563.899 170.5C561.799 171.4 560.099 170.8 559.499 168.8C558.899 166.5 561.299 167 562.399 166.7C571.299 164.1 580.199 161.8 588.999 159.2C590.899 158.7 591.999 158.9 593.099 160.6C594.199 162.3 594.099 163.6 592.799 165C592.599 165.2 592.399 165.5 592.199 165.8C586.299 173.9 580.299 182 574.399 190ZM587.699 163.8C583.499 164.9 579.299 166 574.699 167.3C576.799 170.2 578.499 172.6 580.299 175.1C583.199 171.3 585.799 167.9 588.399 164.5C588.599 164.2 589.099 163.6 588.999 163.6C588.499 163 587.999 163.2 587.699 163.8Z" fill="white"/>
<path d="M618.8 449C618.1 454.4 614.6 453.1 611.6 452.5C609.1 452 606.5 451 605.5 454.5C604.5 458.2 599.7 461.7 604.9 465.7C606.3 466.8 607.5 468.2 608.9 469.4C610.5 470.8 608.9 471.8 608.4 472.7C607.6 474.1 606.7 472.8 606.1 472.2C598.8 465.2 591.5 458.2 584.3 451.3C583 450.1 583.8 448.8 584.2 447.6C584.9 445.6 586.5 445.6 588.3 445.8C598.3 446.9 608.3 447.9 618.8 449ZM588 449.8C592.4 453.9 595.8 457 599.3 460.3C600.3 458.3 601 456.8 601.8 455.4C603.3 452.7 603.2 451.2 599.5 451C596.1 451 592.6 450.4 588 449.8Z" fill="white"/>
<path d="M344.099 628.3C343.899 624.3 343.899 620.3 343.299 616.4C342.699 612.7 344.199 611.8 347.499 611.9C351.099 612 354.799 611.5 358.399 611.3C359.999 611.2 360.899 611.7 360.899 613.5C360.899 615.5 359.399 614.8 358.399 614.9C357.099 615 355.699 615 354.399 615C347.599 615.2 347.799 615.2 347.899 622.2C347.899 625.3 348.499 626.8 351.999 626C354.099 625.5 356.299 625.7 358.399 625.5C359.599 625.4 360.699 625.3 360.899 627C361.099 628.7 360.199 629 358.899 628.9C358.399 628.9 357.899 629 357.399 629C347.899 629.9 348.099 629.8 348.899 639.2C349.099 641.6 350.099 641.8 351.999 641.6C354.799 641.3 357.599 641.2 360.399 640.9C361.699 640.8 362.999 640.4 363.099 642.5C363.199 644.2 362.199 644.4 360.999 644.5C356.499 644.8 352.099 645.1 347.599 645.5C345.099 645.7 344.999 644.4 344.899 642.5C344.699 637.9 344.399 633.1 344.099 628.3Z" fill="white"/>
<path d="M636.199 384.9C626.899 380.3 617.899 375.8 608.899 371.4C607.199 370.6 605.899 370 606.299 367.6C606.699 365.4 607.699 364.4 609.799 364.2C618.299 363.2 626.599 360.7 634.999 359.2C636.299 359 639.099 356.9 639.699 360.2C640.199 363.2 637.799 362.9 635.799 363.2C629.399 364.4 626.399 368.7 627.799 375.2C628.399 378 631.399 378 633.499 378.9C636.099 380.1 637.899 381.4 636.199 384.9ZM624.799 365.4C620.299 366.3 615.799 367.2 610.799 368.2C613.199 369.4 614.999 370.4 616.899 371.3C619.199 372.4 621.999 375.3 623.799 373.9C625.899 372.2 625.299 368.5 624.799 365.4Z" fill="white"/>
<path d="M50.6 450.8C47.4 446.1 51.5 444.5 53.9 442.9C57.4 440.6 57.3 438.3 55.8 435.1C54.3 432 54.3 428 48.9 429C46.9 429.4 42.5 431.7 42.5 427.4C42.5 423.5 46.7 426 48.8 425.7C56.7 424.6 64.7 424.8 72.7 424.9C74.2 424.9 75.8 424.3 76.4 426.9C76.9 429 76.5 430 74.9 431.3C66.8 437.7 58.8 444.2 50.6 450.8ZM71.1 429C66.5 429 62 429 57.1 429C58.2 432.1 59.1 434.9 60.2 438C64.1 434.7 67.5 431.8 71 428.9C71.2 428.8 71.5 428.7 71.7 428.6C71.5 428.5 71.3 428.4 71.1 428.3C71.2 428.6 71.2 428.8 71.1 429Z" fill="white"/>
<path d="M227.301 609.9C226.201 609.7 225.601 610.2 225.301 611.1C224.201 613.9 222.401 616.6 222.401 619.4C222.301 623.2 227.001 621.6 228.701 623.5C230.301 625.3 235.401 624.2 233.701 628C232.401 630.7 229.401 627.7 227.301 626.9C216.101 622.9 216.201 622.8 220.601 611.9C223.001 606.1 225.001 600.2 227.101 594.3C227.801 592.4 228.401 591.2 230.901 592.5C234.701 594.4 238.901 595.7 242.801 597.3C243.501 597.6 244.901 597.7 244.101 599.3C243.501 600.6 242.901 601.2 241.501 600.5C239.401 599.6 237.201 598.9 235.101 597.9C231.901 596.4 230.701 597.5 229.101 600.6C226.701 605.4 228.201 607.1 232.601 608.4C234.701 609 239.101 609 237.901 612.1C236.501 615.8 233.501 611.8 231.201 611.5C229.901 611.4 228.601 610.5 227.301 609.9Z" fill="white"/>
<path d="M76.1003 234.3C74.4003 239.1 72.7003 244.3 70.8003 249.4C70.3003 250.6 69.1003 249.6 68.2003 249.3C59.6003 246.5 50.9003 243.7 42.3003 240.9C41.1003 240.5 39.7003 240.2 40.4003 238.2C42.1003 233.9 43.6003 229.6 45.1003 225.2C45.6003 223.8 46.0003 223.4 47.5003 223.8C49.7003 224.3 48.4003 225.4 48.1003 226.3C47.3003 228.8 46.5003 231.4 45.6003 233.8C44.6003 236.3 44.8003 237.4 47.9003 238.3C54.2003 240.1 54.1003 240.4 56.4003 234C56.7003 233.1 57.1003 232.1 57.5003 231.2C58.1003 230 58.2003 227.9 60.4003 228.9C62.6003 229.9 60.8003 231.3 60.6003 232.6C60.5003 232.9 60.3003 233.2 60.2003 233.5C57.4003 241.6 58.3003 242.9 66.9003 244.6C69.0003 245 69.1003 243.9 69.5003 242.7C70.6003 239.6 71.7003 236.5 72.8003 233.3C73.2003 232.2 73.8003 231.7 75.0003 232C76.0003 232.3 76.1003 233.1 76.1003 234.3Z" fill="white"/>
<path d="M119.8 159.2C119 158.5 118.3 157.8 117.6 157.2C111 151.4 104.5 145.4 97.7997 139.8C96.0997 138.4 96.1997 137.8 97.4997 136.5C100.5 133.2 103.5 129.8 106.4 126.5C107.1 125.8 107.6 124.7 108.7 125.8C109.5 126.6 110.4 127.3 109.1 128.6C107.8 129.9 106.8 131.4 105.6 132.8C101.5 137.5 102.1 139.7 107.6 143C109.1 143.9 109.7 143.2 110.5 142.4C112.3 140.5 114.2 138.6 115.8 136.5C116.8 135.2 117.7 135 119 136C120.9 137.4 118.9 137.8 118.4 138.5C117.7 139.4 116.8 140.2 116.2 141.2C114.9 143.2 111.2 144.6 112.4 146.9C113.9 149.6 117.1 151.5 119.6 153.6C121.2 154.9 121.5 152.8 122.1 152.2C124.3 150 126.3 147.5 128.3 145.1C129.1 144.1 129.7 143.3 131 144.5C131.7 145.3 132.3 146 131.4 147C128 150.8 124.6 154.7 121.1 158.5C120.9 158.7 120.4 158.8 119.8 159.2Z" fill="white"/>
<path d="M491.399 105.8C489.199 104.5 487.199 103.3 485.299 102C482.399 100 477.199 99.1001 476.899 96.2001C476.599 93.3001 479.999 89.9001 481.799 86.8001C484.899 81.6001 488.099 76.4001 491.299 71.2001C492.099 69.9001 492.699 68.7001 494.699 70.0001C498.399 72.5001 502.299 74.6001 506.199 76.8001C507.299 77.5001 508.199 78.0001 506.999 79.4001C506.099 80.4001 505.299 80.8001 504.099 79.9001C502.899 79.0001 501.599 78.2001 500.299 77.5001C498.299 76.4001 494.999 74.0001 494.599 74.4001C492.499 76.4001 491.299 79.2001 489.799 81.8001C488.899 83.3001 490.599 83.4001 491.099 83.7001C493.399 85.3001 495.899 86.6001 498.299 88.1001C499.199 88.7001 500.399 89.0001 499.299 90.7001C498.299 92.2001 497.499 91.8001 496.499 91.1001C495.699 90.5001 494.899 89.9001 493.999 89.4001C487.599 85.5001 487.699 85.6001 483.599 91.7001C481.699 94.5001 480.899 96.3001 484.899 97.8001C487.299 98.7001 489.399 100.6 491.799 101.8C492.999 102.4 493.399 102.9 492.799 104C492.399 104.7 491.799 105.2 491.399 105.8Z" fill="white"/>
<path d="M381.899 641.9C373.399 641.9 367.499 636.8 365.999 628.4C364.399 619.9 368.299 611.7 375.399 608.9C378.299 607.7 381.299 606.7 384.599 607C386.099 607.1 388.299 606.7 387.999 609.4C387.699 612.1 385.699 610.7 384.499 610.7C379.299 610.9 374.299 611.9 371.799 616.9C369.199 622.1 369.499 627.6 372.399 632.6C375.399 637.9 380.599 639.1 388.199 636.9C389.299 636.6 390.899 634.6 391.899 637.1C392.899 639.6 390.499 639.9 389.199 640.4C386.699 641.4 384.099 642.2 381.899 641.9Z" fill="white"/>
<path d="M33.9998 259.6C33.7998 256 35.0998 252.8 36.5998 249.7C37.2998 248.3 37.9998 248.3 39.2998 248.9C40.5998 249.6 40.3998 250.4 39.7998 251.3C37.9998 254 37.2998 257.1 37.4998 260.3C37.8998 267.1 42.8998 271.6 49.9998 272C57.1998 272.4 62.4998 268.6 63.9998 262C64.1998 261.2 63.9998 260.2 64.3998 259.6C65.2998 258.2 62.5998 254.9 66.1998 255.1C69.7998 255.3 68.0998 258.5 67.8998 260.2C65.8998 275.4 52.3998 281.4 39.8998 272.6C35.2998 269.4 33.6998 264.9 33.9998 259.6Z" fill="white"/>
<path d="M225.599 81.3C217.199 81.3 210.999 75.5 209.699 66.9C208.299 58.1 213.099 50.7 221.899 47.9C222.399 47.8 222.899 47.6 223.399 47.6C224.999 47.5 227.099 45.6 227.899 48.3C228.799 51.3 225.899 50.5 224.399 51C219.799 52.6 215.099 54.2 213.999 59.7C212.999 65.7 213.999 71.2 218.999 75C223.599 78.5 228.599 77.7 233.499 75.1C234.199 74.7 234.999 74.4 235.599 73.8C236.799 72.7 237.499 73 238.399 74.2C239.299 75.5 238.299 75.8 237.499 76.4C233.799 79.5 229.599 81.1 225.599 81.3Z" fill="white"/>
<path d="M608 340C608 339.6 608 338.6 608.3 337.7C608.9 336.2 608.5 333.3 611.3 334.3C614 335.2 611.5 337 611.5 338.3C611.5 339.6 611.1 340.9 611.2 342.2C611.3 344.5 612.4 346.4 614.8 347C616.9 347.5 618.6 346.9 619.9 345C621.3 343.1 622.2 341 623.2 339C625.1 335.3 627.8 332.4 632.5 333.1C637.3 333.9 639.9 337.1 640.6 341.8C641 345 640.2 348 639.2 351.1C638.9 352.2 638.6 353 636.8 352.5C634.7 351.9 635.3 350.9 635.7 349.7C636.5 347.9 636.9 346 637 344C637.1 341 636.1 338.8 633.1 337.9C630.1 337.1 627.9 338.3 626.4 340.9C625.7 342.2 625.2 343.6 624.5 344.9C621.9 350.2 618.2 352.3 613.5 351.1C610.1 350 607.8 345.9 608 340Z" fill="white"/>
<path d="M564.201 132C570.401 132 578.401 137.6 580.401 143.4C580.701 144.3 581.401 145.3 580.201 145.9C579.201 146.4 578.001 146.7 577.401 145.1C577.201 144.6 577.001 144.2 576.801 143.8C569.101 131.1 557.501 136.1 552.301 144.7C549.201 149.8 551.401 156.1 557.101 160.9C557.801 161.5 560.701 161 559.001 163.7C557.401 166.3 556.301 164.1 555.201 163.4C548.501 158.9 545.401 151.6 547.401 145C549.501 138.3 557.601 132 564.201 132Z" fill="white"/>
<path d="M111.5 545.1C106.9 545 101 539.6 99.9997 534.9C99.6997 533.4 100.4 532.7 101.4 532.2C103.4 531.2 103 532.9 103.3 533.9C103.4 534.2 103.6 534.5 103.7 534.8C106.1 539.8 109.8 542.1 113.2 540.9C116.6 539.7 117.4 535.8 115.5 530.2C114.3 526.9 113.1 523.5 115.3 520.2C117.4 517.2 120.3 515 124.2 516.2C128.7 517.5 131.9 520.6 133.5 525.1C134 526.5 133 526.8 132.2 527.3C130.9 528.2 130.6 527.3 130.1 526.3C128.2 522.6 126.1 517.9 121 520.4C116.1 522.7 118.8 527.1 120 530.9C122.4 539.1 118.7 545.3 111.5 545.1Z" fill="white"/>
<path d="M285.901 639.1C286.901 630.3 288.001 621.2 289.001 612.1C289.301 609.8 289.901 608.5 292.801 609.2C296.701 610.1 300.701 610.4 304.601 610.8C306.001 611 307.301 611 306.901 613C306.501 615 305.301 614.6 303.901 614.3C302.801 614.1 301.601 614.1 300.501 613.8C295.401 612.4 292.601 613 292.401 619.6C292.301 623.6 292.401 625.1 296.601 624.9C298.401 624.8 300.201 625.4 302.001 625.7C302.901 625.8 304.101 625.6 303.901 627.2C303.701 628.4 303.001 629 301.901 628.8C299.301 628.5 296.601 628.3 294.001 627.9C291.901 627.5 291.101 628.1 291.001 630.4C290.801 633.5 290.301 636.7 289.801 639.7C289.601 640.8 289.701 642.6 287.601 642.3C285.701 642.1 285.001 641.1 285.901 639.1Z" fill="white"/>
<path d="M146.301 132.5C145.301 133.2 144.601 133.8 143.801 134.4C142.901 135 142.501 134.5 141.801 133.8C135.601 126.7 129.301 119.6 123.001 112.6C121.701 111.2 122.101 110.5 123.301 109.4C126.701 106.5 130.001 103.4 133.301 100.5C134.301 99.6001 135.301 99.7001 136.301 100.8C137.701 102.3 136.301 102.7 135.501 103.4C134.001 104.7 132.401 106 131.101 107.4C130.001 108.7 126.701 109 127.801 111.2C129.201 113.9 131.501 116.2 133.801 118.3C134.601 119 135.801 117.5 136.601 116.7C138.401 115 140.201 113.3 142.001 111.6C142.901 110.7 143.801 110.9 144.501 111.8C145.201 112.7 145.501 113.5 144.301 114.3C144.201 114.4 144.001 114.5 143.901 114.6C141.801 117.2 136.901 118.8 137.301 121.8C137.701 124.7 141.501 127.1 143.801 129.7C144.701 130.6 145.401 131.5 146.301 132.5Z" fill="white"/>
<path d="M329.901 630.9C329.901 634.9 329.901 638.9 329.901 642.9C329.901 644.1 330.501 645.6 328.201 645.6C326.301 645.6 325.601 644.9 325.601 643C325.801 635.2 325.701 627.4 326.201 619.6C326.401 616 325.101 615.2 322.001 615.6C320.801 615.7 319.701 615.6 318.501 615.6C317.001 615.7 316.401 614.8 316.401 613.5C316.301 612 317.401 612 318.401 612C325.201 612.1 332.001 612.2 338.901 612.4C340.101 612.4 340.901 612.8 340.701 614.1C340.601 615.2 340.001 615.7 338.801 616C336.001 616.6 332.001 613.9 330.601 617.6C329.501 620.4 330.301 623.8 330.201 627C330.201 628.3 330.201 629.7 330.201 631C330.101 630.9 330.001 630.9 329.901 630.9Z" fill="white"/>
<path d="M215.6 589.5C215 590.6 214.5 591.5 214 592.5C210.6 599.5 207.3 606.5 203.9 613.5C203.3 614.8 203 616.6 200.5 615.3C197.8 613.9 199.9 612.8 200.3 611.8C203.5 604.7 206.6 597.6 210.1 590.7C211.6 587.8 210.7 586.7 208.1 585.8C206.9 585.4 205.8 584.6 204.5 584.1C202.9 583.5 203.1 582.8 203.7 581.5C204.4 579.8 205.1 580.3 206.2 580.9C212 583.7 217.8 586.5 223.6 589.3C224.7 589.9 226 590.4 225.2 592.3C224.2 594.8 222.7 593.2 221.6 592.7C219.6 591.7 217.7 590.6 215.6 589.5Z" fill="white"/>
<path d="M554.2 500.8C555.5 504.2 556.7 507.4 557.6 510.6C559.6 517.7 562.9 523.6 569.2 527.7C570.4 528.5 572.6 529.6 570.5 531.9C568.4 534.1 567.4 531.9 566.6 530.9C560.2 523 550.7 523 542 521C540.8 520.7 538.4 521.6 538.7 519.3C539 517.5 540.5 516.2 542.8 516.8C546.8 517.9 550.8 518.9 554.8 519.9C555.4 520.1 556.1 520.1 557.2 520.2C556.2 515.5 553.9 511.5 552 507.4C550.7 504.6 551.1 502.5 554.2 500.8Z" fill="white"/>
<path d="M316.3 28.2C317.9 29.1 321.7 26.1 322.1 29.4C322.5 33 318.2 31.3 316.3 31.7C313.1 32.3 312.7 33.6 313 36.2C313.6 43.3 314.1 50.4 314.7 57.5C314.8 59.1 315.1 60.4 312.9 60.7C310.6 61 310.4 59.5 310.3 58C309.8 50.7 309.2 43.4 308.9 36.1C308.8 33 307.9 31.8 304.8 32.9C303.6 33.3 302.2 33 300.8 33.2C298.8 33.5 298.6 31.9 298.5 30.7C298.3 28.9 299.9 29.2 300.9 29.1C305.9 28.8 310.8 28.5 316.3 28.2Z" fill="white"/>
<path d="M152.8 544.3C151.9 544.9 151.7 546.9 149.9 545.6C149.6 545.4 149.4 545.1 149.2 544.9C143 539.9 143 540 137.7 546C133.8 550.4 129.7 554.8 125.6 559.1C124.7 560 124.1 561.8 122.2 560C120.5 558.4 121.6 557.3 122.5 556.3C127.6 550.7 132.7 545 138.1 539.6C140.4 537.3 140.8 536 138 533.9C136.4 532.7 133.4 530.6 135.1 528.9C137.7 526.2 139.1 530.2 140.6 531.6C144.3 534.9 147.7 538.4 151.2 541.9C151.7 542.6 152.9 542.9 152.8 544.3Z" fill="white"/>
<path d="M603.599 186.1C601.499 187.3 599.499 188.4 597.499 189.5C592.199 192.5 586.999 195.6 581.599 198.6C580.399 199.3 579.299 200.5 578.099 198.3C576.999 196.3 578.299 195.6 579.499 194.9C585.699 191.4 591.799 187.9 598.099 184.6C601.199 182.9 603.199 181.1 599.999 177.7C599.499 177.1 599.199 176.2 598.799 175.5C598.099 174.3 597.199 173.2 599.099 172.3C600.999 171.3 601.399 173 601.999 174C604.099 177.5 606.099 181.2 608.099 184.7C609.199 186.7 610.199 188.8 611.499 190.7C612.299 191.9 612.399 192.6 610.999 193.5C609.499 194.4 608.899 193.6 608.299 192.5C607.299 190.8 606.399 189 605.399 187.3C604.999 186.7 604.599 185.9 603.599 186.1Z" fill="white"/>
<path d="M70.4992 180.1C69.0992 182.3 67.6992 184.5 66.3992 186.8C65.5992 188.3 64.7992 188.6 63.2992 187.6C61.4992 186.4 62.9992 185.8 63.4992 185C66.7992 179.4 69.9992 173.9 73.2992 168.4C73.7992 167.5 73.9992 165.5 76.0992 166.7C78.2992 167.9 76.7992 169.1 76.2992 170.3C73.2992 176.7 73.2992 176.7 79.6992 180.6C84.7992 183.7 89.7992 186.9 94.9992 189.8C96.4992 190.7 97.5992 190.9 96.2992 193C95.0992 194.9 94.2992 194.3 92.7992 193.4C85.3992 188.8 77.9992 184.5 70.4992 180.1Z" fill="white"/>
<path d="M151.9 585.2C149.8 584.3 149 583.4 150.7 581.2C155.3 575.1 159.4 568.7 164.1 562.7C166.2 560.1 166 558.6 163.4 557C162.6 556.5 161.7 555.9 161 555.2C160.1 554.3 158 554 159.6 551.9C161.3 549.7 162.1 551.8 163.1 552.5C167.9 556 172.7 559.6 177.5 563.1C178.7 564 180 565 178.6 566.7C177.2 568.5 176.5 566.8 175.5 566.1C169.6 561.8 169.6 561.8 165.3 567.8C161.8 572.7 158.4 577.5 154.8 582.3C154.2 583.5 152.9 584.3 151.9 585.2Z" fill="white"/>
<path d="M480.5 568.9C482.3 568.9 482.3 570.4 482.9 571.3C487.1 577.8 491.3 584.3 495.3 591C496.6 593.2 497.5 593.7 499.6 591.8C501.7 590 504.1 588.5 506.5 587.1C507.2 586.7 508.1 585.1 509.3 586.9C510.2 588.3 510.1 589.2 508.7 590.1C505 592.5 501.2 594.9 497.6 597.5C495.8 598.8 495.1 598.3 494.1 596.6C489.2 588.6 484.2 580.6 479 572.8C477.1 570 479.8 570.1 480.5 568.9Z" fill="white"/>
<path d="M588.4 214.9C586.7 215.4 586.6 213.8 586 212.9C585.3 211.8 586 211.1 587 210.6C595.7 206.4 604.5 202.2 613.2 198C614.5 197.4 615 198 615.6 198.9C616.2 199.8 616.4 201 615.4 201.5C606.4 206.1 597.4 210.5 588.4 214.9Z" fill="white"/>
<path d="M71.0001 409.1C71.3001 410.7 70.2001 410.8 69.0001 411.2C60.1001 413.7 51.3001 416.3 42.5001 418.9C41.4001 419.2 40.3001 419.4 39.8001 417.7C39.4001 416.1 39.5001 415.4 41.3001 414.9C50.2001 412.4 59.0001 409.7 67.8001 407.1C69.6001 406.5 70.9001 406.9 71.0001 409.1Z" fill="white"/>
<path d="M402.6 67.3C400.9 67.2 399.7 66.7 400.2 64.6C402.4 55.8 404.5 47 406.6 38.2C407 36.5 407.5 35.6 409.5 36.1C411.6 36.6 411.1 37.9 410.8 39.2C408.7 47.8 406.5 56.5 404.3 65.1C404.1 65.8 404.4 67.4 402.6 67.3Z" fill="white"/>
<path d="M137.3 573.4C136.7 572.9 136.1 572.4 135.5 571.9C134.5 571.1 134.8 570.3 135.5 569.4C141.8 561.9 148.1 554.5 154.4 547C155.3 545.9 155.9 546.1 156.7 547C157.3 547.7 158.5 548.1 157.5 549.3C151.1 557.1 144.6 564.9 138.2 572.7C138 572.9 137.7 573 137.3 573.4Z" fill="white"/>
<path d="M75.5993 499.9C74.1993 500.1 74.0993 498.8 73.5993 498.1C72.2993 496.4 73.9993 496.3 74.8993 495.7C80.3993 492.1 85.8993 488.5 91.3993 484.9C93.6993 483.4 96.0993 481.8 98.4993 480.4C99.5993 479.7 100.499 479.5 101.399 480.9C102.199 482.1 102.299 483 100.999 483.8C92.7993 489 84.5993 494.2 76.4993 499.4C76.1993 499.5 75.8993 499.7 75.5993 499.9Z" fill="white"/>
<path d="M332.199 43.6001C332.199 48.2001 332.199 52.9001 332.199 57.5001C332.199 58.9001 332.099 60.0001 330.099 60.0001C328.199 60.0001 327.999 59.0001 327.999 57.5001C327.899 48.2001 327.899 38.9001 327.699 29.6001C327.699 28.0001 328.399 27.6001 329.799 27.6001C331.199 27.6001 331.899 28.1001 331.899 29.6001C331.799 34.2001 331.899 38.9001 331.899 43.5001C331.999 43.6001 332.099 43.6001 332.199 43.6001Z" fill="white"/>
<path d="M46.5995 336C51.0995 336 55.4995 336 59.9995 336C60.9995 336 61.9995 335.9 62.0995 337.3C62.1995 339 61.2995 339.2 59.9995 339.2C50.8995 339.5 41.7995 339.8 32.7995 340.1C31.1995 340.2 29.8995 340.1 29.9995 337.8C30.0995 335.7 31.3995 336 32.6995 336C37.2995 335.9 41.8995 335.9 46.5995 336C46.5995 335.9 46.5995 335.9 46.5995 336Z" fill="white"/>
<path d="M569.9 489.9C569.6 489.7 569.4 489.4 569.1 489.2C569.2 489.2 569.4 489 569.5 489.1C570 489.3 570.1 489.6 569.7 490C569.8 490 569.9 489.9 569.9 489.9Z" fill="#FEFDFD"/>
<path d="M613.5 269.8C613.7 270 613.8 270.2 614 270.4C613.8 270.5 613.6 270.6 613.4 270.7C613.5 270.4 613.6 270.2 613.7 269.9L613.5 269.8Z" fill="#FEFDFD"/>
<path d="M428.1 602.8C427.8 603.2 427.4 603.2 427.2 602.7C427.1 602.6 427.2 602.4 427.3 602.3C427.6 602.5 427.8 602.7 428.1 602.9C428 602.9 428.1 602.8 428.1 602.8Z" fill="#FEFDFD"/>
<path d="M448.8 613.2C448.7 613.3 448.7 613.4 448.6 613.5C448.4 613.4 448.2 613.3 448.1 613.2C448.2 613.1 448.3 612.9 448.4 612.9C448.5 612.9 448.6 613.1 448.8 613.2Z" fill="#FEFDFD"/>
<path d="M75.9004 450.8C76.3004 449.9 76.9004 449.9 77.7004 450.2C77.4004 450.6 77.1004 451.1 76.8004 451.5C76.5004 451.3 76.2004 451 75.9004 450.8Z" fill="#FEFDFD"/>
<path d="M69.0992 472C68.7992 472.3 68.3992 472.8 68.2992 472.7C67.3992 472.2 68.2992 471.8 68.4992 471.4C68.6992 471.6 68.8992 471.8 69.0992 472Z" fill="#FEFDFD"/>
<path d="M101.801 495.5C102.201 495.5 102.501 495.6 102.901 495.6C102.801 495.7 102.801 495.9 102.701 496C102.401 495.9 102.101 495.6 101.801 495.5C101.801 495.5 101.801 495.4 101.801 495.5Z" fill="#FEFDFD"/>
<path d="M587.699 163.8C587.999 163.2 588.399 162.9 588.999 163.5C589.099 163.6 588.599 164.1 588.399 164.4C588.099 164.2 587.899 164 587.699 163.8Z" fill="#FEFDFD"/>
<path d="M334.8 494C334.8 502.7 334.6 511.3 334.9 520C335 523.8 334.2 525.2 330 525.1C285.5 524.5 246.5 509.4 212.5 481.1C179.8 453.8 159.2 418.9 150.2 377.5C141.8 338.9 145.5 301.1 161.2 264.8C181 219.1 214.2 186.4 259.6 166.3C282.2 156.3 306 151.3 330.9 151.9C334.3 152 335 153 335 156.2C334.8 174 334.8 191.8 335 209.7C335 213.7 334.2 215.1 329.9 215.2C271.1 216.4 220 260.4 211.5 318.4C204.7 364.7 219.2 403.7 255.4 433.9C275.3 450.5 298.2 459.5 324.1 461.1C334.9 461.8 334.9 461.9 334.9 473C334.8 480 334.8 487 334.8 494Z" fill="#C5AA7E"/>
<path d="M334.1 338.5C334.1 365.6 334 392.8 334.2 419.9C334.2 423.5 333.2 424.2 329.8 424C287.4 422.2 254.1 391.4 248.7 350.3C245.1 323.2 252.3 300 270 279.9C282.7 265.6 299.3 257.4 318.2 253.9C322.3 253.2 326.5 253.2 330.6 252.5C334.4 251.8 334.1 253.9 334.1 256.4C334.1 275.4 334.1 294.4 334.1 313.3C334.1 321.8 334.1 330.2 334.1 338.5Z" fill="#702D25"/>
<path d="M401.8 462.1C420.1 462.1 438.4 462.2 456.7 462C460.7 462 462.2 462.8 462.1 467.2C461.9 484.5 461.9 501.8 462.1 519.1C462.2 523.2 460.8 524 457 524C419.9 523.9 382.8 523.9 345.7 524C342.2 524 340.7 523.4 340.8 519.4C341 501.8 341 484.1 340.8 466.5C340.8 462.9 342 462 345.4 462C364.2 462.2 383 462.1 401.8 462.1Z" fill="#C5AA7E"/>
<path d="M401.401 150.9C420.001 150.9 438.701 151 457.301 150.8C460.901 150.8 462.201 151.6 462.101 155.4C461.901 172.7 461.901 190 462.101 207.3C462.101 210.9 461.201 212.1 457.401 212.1C420.101 212 382.801 212 345.601 212.1C341.901 212.1 340.701 211.2 340.801 207.4C341.001 190.1 341.001 172.8 340.801 155.5C340.801 151.8 341.701 150.7 345.501 150.7C364.101 151 382.801 150.9 401.401 150.9Z" fill="#C5AA7E"/>
<path d="M379.5 369.1C367.8 369.1 356.2 369 344.5 369.2C341 369.3 339.9 368.2 340 364.7C340.2 351.2 340.2 337.7 340 324.2C339.9 320.6 341.2 319.8 344.6 319.8C367.9 319.9 391.2 319.9 414.5 319.8C418 319.8 419 320.8 419 324.3C418.8 337.8 418.8 351.3 419 364.8C419.1 368.4 417.9 369.3 414.4 369.3C402.8 369 391.1 369.1 379.5 369.1Z" fill="#C5AA7E"/>
<path d="M798.957 414V249.733H828.995V414H798.957ZM860.832 414V249.733H890.87V414H860.832ZM960.958 414V273.904H913.086V249.733H1039.1V273.904H990.995V414H960.958ZM1117.27 414V249.733H1152.94L1205.27 353.925L1256.9 249.733H1292.57V414H1262.53V300.656L1216.77 390.533H1193.07L1147.31 300.656V414H1117.27ZM1363.86 416.816C1353.85 416.816 1345.63 415.252 1339.22 412.123C1332.81 408.837 1328.03 404.535 1324.91 399.216C1321.78 393.897 1320.21 388.03 1320.21 381.616C1320.21 370.821 1324.44 362.06 1332.88 355.333C1341.33 348.606 1354 345.243 1370.9 345.243H1400.47V342.427C1400.47 334.448 1398.2 328.581 1393.66 324.827C1389.13 321.072 1383.49 319.195 1376.77 319.195C1370.67 319.195 1365.35 320.681 1360.81 323.653C1356.27 326.469 1353.46 330.693 1352.36 336.325H1323.03C1323.81 327.877 1326.63 320.524 1331.48 314.267C1336.48 308.009 1342.9 303.237 1350.72 299.952C1358.54 296.51 1367.3 294.789 1377 294.789C1393.58 294.789 1406.65 298.935 1416.19 307.227C1425.73 315.518 1430.51 327.252 1430.51 342.427V414H1404.93L1402.11 395.227C1398.67 401.484 1393.82 406.647 1387.56 410.715C1381.46 414.782 1373.56 416.816 1363.86 416.816ZM1370.67 393.349C1379.27 393.349 1385.92 390.533 1390.61 384.901C1395.46 379.269 1398.51 372.308 1399.76 364.016H1374.19C1366.21 364.016 1360.5 365.502 1357.06 368.475C1353.61 371.291 1351.89 374.811 1351.89 379.035C1351.89 383.572 1353.61 387.092 1357.06 389.595C1360.5 392.098 1365.03 393.349 1370.67 393.349ZM1512.67 416.816C1501.72 416.816 1491.95 414.156 1483.34 408.837C1474.74 403.518 1467.93 396.244 1462.92 387.013C1457.92 377.783 1455.42 367.301 1455.42 355.568C1455.42 343.835 1457.92 333.431 1462.92 324.357C1467.93 315.127 1474.74 307.931 1483.34 302.768C1491.95 297.449 1501.72 294.789 1512.67 294.789C1521.43 294.789 1529.1 296.432 1535.67 299.717C1542.24 303.003 1547.56 307.618 1551.63 313.563V245.04H1581.67V414H1554.91L1551.63 397.339C1547.87 402.501 1542.87 407.038 1536.61 410.949C1530.51 414.86 1522.53 416.816 1512.67 416.816ZM1519.01 390.533C1528.71 390.533 1536.61 387.326 1542.71 380.912C1548.97 374.341 1552.1 365.972 1552.1 355.803C1552.1 345.634 1548.97 337.342 1542.71 330.928C1536.61 324.357 1528.71 321.072 1519.01 321.072C1509.47 321.072 1501.57 324.279 1495.31 330.693C1489.05 337.108 1485.92 345.399 1485.92 355.568C1485.92 365.737 1489.05 374.107 1495.31 380.677C1501.57 387.248 1509.47 390.533 1519.01 390.533ZM1612.25 414V297.605H1639.01L1641.82 319.429C1646.05 311.92 1651.76 305.975 1658.95 301.595C1666.3 297.058 1674.91 294.789 1684.77 294.789V326.469H1676.32C1669.75 326.469 1663.88 327.486 1658.72 329.52C1653.55 331.554 1649.49 335.074 1646.51 340.08C1643.7 345.086 1642.29 352.048 1642.29 360.965V414H1612.25ZM1745.42 416.816C1735.41 416.816 1727.2 415.252 1720.78 412.123C1714.37 408.837 1709.6 404.535 1706.47 399.216C1703.34 393.897 1701.78 388.03 1701.78 381.616C1701.78 370.821 1706 362.06 1714.45 355.333C1722.9 348.606 1735.57 345.243 1752.46 345.243H1782.03V342.427C1782.03 334.448 1779.76 328.581 1775.23 324.827C1770.69 321.072 1765.06 319.195 1758.33 319.195C1752.23 319.195 1746.91 320.681 1742.37 323.653C1737.84 326.469 1735.02 330.693 1733.92 336.325H1704.59C1705.37 327.877 1708.19 320.524 1713.04 314.267C1718.05 308.009 1724.46 303.237 1732.28 299.952C1740.1 296.51 1748.86 294.789 1758.56 294.789C1775.15 294.789 1788.21 298.935 1797.75 307.227C1807.3 315.518 1812.07 327.252 1812.07 342.427V414H1786.49L1783.67 395.227C1780.23 401.484 1775.38 406.647 1769.12 410.715C1763.02 414.782 1755.12 416.816 1745.42 416.816ZM1752.23 393.349C1760.83 393.349 1767.48 390.533 1772.18 384.901C1777.02 379.269 1780.08 372.308 1781.33 364.016H1755.75C1747.77 364.016 1742.06 365.502 1738.62 368.475C1735.18 371.291 1733.46 374.811 1733.46 379.035C1733.46 383.572 1735.18 387.092 1738.62 389.595C1742.06 392.098 1746.6 393.349 1752.23 393.349ZM1888.84 416.816C1878.51 416.816 1869.44 415.173 1861.62 411.888C1853.8 408.446 1847.54 403.753 1842.84 397.808C1838.15 391.863 1835.34 384.98 1834.4 377.157H1864.67C1865.61 381.694 1868.11 385.605 1872.18 388.891C1876.4 392.02 1881.8 393.584 1888.37 393.584C1894.94 393.584 1899.71 392.254 1902.68 389.595C1905.81 386.935 1907.38 383.884 1907.38 380.443C1907.38 375.436 1905.19 372.073 1900.81 370.352C1896.43 368.475 1890.33 366.676 1882.5 364.955C1877.5 363.86 1872.41 362.53 1867.25 360.965C1862.09 359.401 1857.32 357.445 1852.94 355.099C1848.71 352.596 1845.27 349.467 1842.61 345.712C1839.95 341.801 1838.62 337.029 1838.62 331.397C1838.62 321.072 1842.69 312.389 1850.82 305.349C1859.11 298.309 1870.69 294.789 1885.55 294.789C1899.32 294.789 1910.27 297.996 1918.41 304.411C1926.7 310.825 1931.63 319.664 1933.19 330.928H1904.8C1903.08 322.324 1896.58 318.021 1885.32 318.021C1879.69 318.021 1875.31 319.116 1872.18 321.307C1869.21 323.497 1867.72 326.235 1867.72 329.52C1867.72 332.962 1869.99 335.7 1874.52 337.733C1879.06 339.767 1885.08 341.644 1892.59 343.365C1900.73 345.243 1908.16 347.355 1914.89 349.701C1921.77 351.892 1927.25 355.255 1931.31 359.792C1935.38 364.172 1937.42 370.508 1937.42 378.8C1937.57 385.996 1935.69 392.489 1931.78 398.277C1927.87 404.066 1922.24 408.603 1914.89 411.888C1907.53 415.173 1898.85 416.816 1888.84 416.816Z" fill="white" fill-opacity="0.92"/>
</g>
<defs>
<clipPath id="clip0_173_432">
<rect width="1999" height="669" fill="white"/>
</clipPath>
</defs>
</svg>
