<svg id="Layer_1" data-name="Layer 1" xmlns="http://www.w3.org/2000/svg" viewBox="0 0 355 189.1"><defs><style>.cls-2{fill:#fff}.cls-3{fill:#ffd040}</style><linearGradient id="linear-gradient" x1="-8.7" y1="95.3" x2="356.3" y2="95.3" gradientUnits="userSpaceOnUse"><stop offset="0" stop-color="#054c6b"/><stop offset="1" stop-color="#065b80"/></linearGradient><linearGradient id="linear-gradient-2" x1="-2987.9" y1="-2844.2" x2="-2987.9" y2="-2844.2" gradientTransform="matrix(1849.27 0 0 -1853.39 5525505.5 -5271306.8)" gradientUnits="userSpaceOnUse"><stop offset="0" stop-color="#387eb8"/><stop offset="1" stop-color="#366994"/></linearGradient><linearGradient id="linear-gradient-3" x1="-2988.3" y1="-2843.8" x2="-2988.2" y2="-2843.9" gradientTransform="matrix(1849.27 0 0 -1853.39 5526149 -5270678.5)" gradientUnits="userSpaceOnUse"><stop offset="0" stop-color="#ffe052"/><stop offset="1" stop-color="#ffc331"/></linearGradient></defs><path fill="url(#linear-gradient)" d="M-8.7-1.5h365v193.6h-365z"/><path class="cls-2" d="M160.6 138.4l.3.8.3-.8.4-.7 3.4-6.7a1.2 1.2 0 0 1 .2-.3.6.6 0 0 1 .2-.1.7.7 0 0 1 .3 0h2.7v13.2h-2.8v-7.6-1.2l-3.4 6.8a1.1 1.1 0 0 1-.5.4 1.2 1.2 0 0 1-.6.2h-.4a1.2 1.2 0 0 1-.7-.2 1.2 1.2 0 0 1-.4-.4L156 135V143.8h-2.7v-13.2h2.7a.8.8 0 0 1 .3 0 .5.5 0 0 1 .2.2 1.2 1.2 0 0 1 .2.2l3.4 6.7.4.8zM182.8 143.8h-2.3a1.2 1.2 0 0 1-.7-.2 1 1 0 0 1-.3-.5l-.8-2.3h-5l-.8 2.3a1 1 0 0 1-.4.5 1 1 0 0 1-.6.2h-2.4l5.1-13.3h3.1zm-8.5-5h3.7l-1.2-3.7-.3-.8-.3-1-.3 1-.3.8zM192.3 140.3a.6.6 0 0 1 .4.2l1.2 1.3a5 5 0 0 1-2 1.6 7 7 0 0 1-2.8.5 6.8 6.8 0 0 1-2.7-.5 5.9 5.9 0 0 1-2-1.4 6.2 6.2 0 0 1-1.3-2.1 7.8 7.8 0 0 1-.5-2.7 7 7 0 0 1 .5-2.8 6.3 6.3 0 0 1 1.5-2.1 6.5 6.5 0 0 1 2.2-1.4 7.6 7.6 0 0 1 2.7-.5 7 7 0 0 1 1.5.1 6.5 6.5 0 0 1 1.2.4 5.8 5.8 0 0 1 1 .6 5.1 5.1 0 0 1 .8.7l-1 1.4a1 1 0 0 1-.2.2.6.6 0 0 1-.4 0 .6.6 0 0 1-.3 0l-.3-.2-.3-.2a2.8 2.8 0 0 0-.5-.2 4 4 0 0 0-.6-.2 4.2 4.2 0 0 0-.9 0 4 4 0 0 0-1.5.2 3.4 3.4 0 0 0-1.2.9 4 4 0 0 0-.8 1.3 5.3 5.3 0 0 0-.2 1.8 5.5 5.5 0 0 0 .2 1.8 4.2 4.2 0 0 0 .8 1.3 3.2 3.2 0 0 0 1 .9 3.4 3.4 0 0 0 1.4.2h.8a3.1 3.1 0 0 0 .6-.1 2.8 2.8 0 0 0 .6-.3 3.8 3.8 0 0 0 .5-.4 1.2 1.2 0 0 1 .3-.1.6.6 0 0 1 .3-.2zM206.8 143.8h-3v-5.6h-5.4v5.6h-3.1v-13.3h3v5.6h5.4v-5.5h3.1zM212.4 143.8h-3.1v-13.3h3zM216.8 130.6a.6.6 0 0 1 .2 0 .8.8 0 0 1 .2.2 2.9 2.9 0 0 1 .3.2l6.2 8v-.8-7.7h2.7v13.3h-1.6a1.3 1.3 0 0 1-.6-.1 1.3 1.3 0 0 1-.5-.4l-6.2-8v8.4h-2.7v-13.1h1.6zM237 130.6v2.3h-5.4v3.1h4.2v2.3h-4.2v3.1h5.5v2.4h-8.5v-13.3zM245.4 141.3h4.9v2.5h-8v-13.3h3zM260.2 130.6v2.3h-5.4v3.1h4.2v2.3h-4.2v3.1h5.5v2.4h-8.5v-13.3zM274.3 143.8h-2.4a1.1 1.1 0 0 1-.6-.2 1 1 0 0 1-.4-.5l-.8-2.3h-5l-.8 2.3a1 1 0 0 1-.3.5 1 1 0 0 1-.7.2H261l5.1-13.3h3.1zm-8.5-5h3.6l-1.2-3.7-.3-.8-.3-1-.3 1-.3.8zM278.4 138.9v4.9h-3v-13.3h4.3a8.7 8.7 0 0 1 2.4.4 4.6 4.6 0 0 1 1.7.8 3 3 0 0 1 .9 1.2 4.2 4.2 0 0 1 .3 1.6 4.4 4.4 0 0 1-.2 1.2 3.9 3.9 0 0 1-.5 1 3.8 3.8 0 0 1-.8 1 4.2 4.2 0 0 1-1.2.5 2.8 2.8 0 0 1 .6.4 2 2 0 0 1 .5.6l2.8 4.6h-2.8a1.2 1.2 0 0 1-1.1-.6l-2.2-3.8a1 1 0 0 0-.3-.4 1.2 1.2 0 0 0-.6-.1zm0-2.1h1.3a3.4 3.4 0 0 0 1-.2 2 2 0 0 0 .8-.4 1.8 1.8 0 0 0 .4-.7 2.6 2.6 0 0 0 0-.8 1.7 1.7 0 0 0-.5-1.4 2.6 2.6 0 0 0-1.7-.5h-1.3zM289.4 130.6a.7.7 0 0 1 .2 0 .7.7 0 0 1 .2.2 1.8 1.8 0 0 1 .3.2l6.2 8v-.8-7.7h2.7v13.3h-1.6a1.3 1.3 0 0 1-.6-.1 1.3 1.3 0 0 1-.5-.4l-6.2-8v8.4h-2.7v-13.1h1.7zM304.5 143.8h-3v-13.3h3zM309 130.6a.7.7 0 0 1 .2 0 .8.8 0 0 1 .2.2 2.9 2.9 0 0 1 .2.2l6.3 8v-.8-7.7h2.6v13.3H317a1.3 1.3 0 0 1-.6-.1 1.3 1.3 0 0 1-.4-.4l-6.3-8v8.4H307v-13.1h1.6zM327 141.6a5.2 5.2 0 0 0 2-.4v-2h-1.4a.6.6 0 0 1-.5-.2.5.5 0 0 1-.1-.4V137h4.7v5.6a6.8 6.8 0 0 1-1 .7 6.6 6.6 0 0 1-1.2.4 8.8 8.8 0 0 1-1.4.3 14.4 14.4 0 0 1-1.5 0 7 7 0 0 1-2.7-.5 6.5 6.5 0 0 1-2.1-1.4 6.7 6.7 0 0 1-1.4-2.1 7 7 0 0 1-.5-2.7 7.3 7.3 0 0 1 .5-2.7 6.3 6.3 0 0 1 1.4-2.2 6.5 6.5 0 0 1 2.2-1.4 8 8 0 0 1 2.9-.5 8.4 8.4 0 0 1 1.5.2 8.2 8.2 0 0 1 1.3.3 6.2 6.2 0 0 1 1.2.6 6 6 0 0 1 .9.7l-1 1.4a1.4 1.4 0 0 1-.2.3.8.8 0 0 1-.4 0 1 1 0 0 1-.6-.1 8 8 0 0 0-.7-.4 3.8 3.8 0 0 0-.6-.3 4 4 0 0 0-.7-.1 7.2 7.2 0 0 0-.9 0 3.9 3.9 0 0 0-1.5.3 3.4 3.4 0 0 0-1.2.9 3.8 3.8 0 0 0-.7 1.3 5.2 5.2 0 0 0-.3 1.7 5.7 5.7 0 0 0 .3 1.9 4 4 0 0 0 .8 1.4 3.3 3.3 0 0 0 1.2.8 3.9 3.9 0 0 0 1.6.3zM203.4 163.1a2.8 2.8 0 0 0 1.1-.2 2.3 2.3 0 0 0 .9-.6 2.6 2.6 0 0 0 .5-.9 4 4 0 0 0 .1-1.2v-7.9h3.1v7.9a6.2 6.2 0 0 1-.4 2.2 5 5 0 0 1-1.1 1.8 5 5 0 0 1-1.8 1 7 7 0 0 1-4.8 0 5 5 0 0 1-1.7-1 5 5 0 0 1-1.2-1.8 6.2 6.2 0 0 1-.4-2.2v-7.9h3.1v7.9a4 4 0 0 0 .2 1.2 2.7 2.7 0 0 0 .5 1 2.2 2.2 0 0 0 .8.5 2.7 2.7 0 0 0 1.1.2zM218.5 155a1.4 1.4 0 0 1-.3.3.7.7 0 0 1-.4.1 1 1 0 0 1-.5-.1l-.5-.3a5 5 0 0 0-.7-.3 3 3 0 0 0-.9-.1 1.9 1.9 0 0 0-1.3.4 1.3 1.3 0 0 0-.4 1 1 1 0 0 0 .3.6 2.3 2.3 0 0 0 .6.5 7.2 7.2 0 0 0 1 .3l1 .4a10.3 10.3 0 0 1 1.2.4 3.6 3.6 0 0 1 .9.7 3.2 3.2 0 0 1 .7 1 3.5 3.5 0 0 1 .2 1.4 4.6 4.6 0 0 1-.3 1.7 4 4 0 0 1-1 1.4 4.4 4.4 0 0 1-1.4 1 5.5 5.5 0 0 1-2 .3 6.9 6.9 0 0 1-1.3-.1 8.4 8.4 0 0 1-1.2-.4 7.8 7.8 0 0 1-1.1-.5 5.2 5.2 0 0 1-1-.8l1-1.4a.8.8 0 0 1 .2-.3.9.9 0 0 1 .4 0 1.1 1.1 0 0 1 .6.1l.6.4a5.4 5.4 0 0 0 .8.4 3.1 3.1 0 0 0 1 .2 2 2 0 0 0 1.4-.4 1.4 1.4 0 0 0 .4-1.2 1.1 1.1 0 0 0-.2-.7 2.1 2.1 0 0 0-.7-.5 6.4 6.4 0 0 0-1-.4l-1-.3a7.2 7.2 0 0 1-1-.4 3.5 3.5 0 0 1-1-.7 3.1 3.1 0 0 1-.7-1 4.2 4.2 0 0 1-.2-1.6 3.7 3.7 0 0 1 1.1-2.7 4.5 4.5 0 0 1 1.5-.9 5.3 5.3 0 0 1 1.9-.3 7.6 7.6 0 0 1 1.2 0 7 7 0 0 1 1 .3 6.7 6.7 0 0 1 1 .5 4.4 4.4 0 0 1 .9.6zM224.3 165.6h-3v-13.3h3zM228.7 152.3a1 1 0 0 1 .3.1.7.7 0 0 1 .1.2 1.8 1.8 0 0 1 .3.2l6.3 8v-.8-7.7h2.7v13.3h-1.7a1.5 1.5 0 0 1-.6-.2 1.3 1.3 0 0 1-.5-.4l-6.2-7.8v8.3h-2.7v-13.2h1.7zM246.7 163.3a4.7 4.7 0 0 0 1.1 0 5.3 5.3 0 0 0 1-.4v-2h-1.4a.6.6 0 0 1-.4-.1.5.5 0 0 1-.2-.4v-1.7h4.7v5.6a8.3 8.3 0 0 1-1 .6 8.6 8.6 0 0 1-1.2.5 9 9 0 0 1-1.3.2 14.2 14.2 0 0 1-1.5.1 7 7 0 0 1-2.7-.5 6.5 6.5 0 0 1-3.6-3.6 7 7 0 0 1-.5-2.7 7.3 7.3 0 0 1 .5-2.7 6.2 6.2 0 0 1 1.4-2.1 6.5 6.5 0 0 1 2.2-1.4 7.8 7.8 0 0 1 2.9-.5 8.4 8.4 0 0 1 1.6.1 7.5 7.5 0 0 1 1.3.4 5.6 5.6 0 0 1 1.1.6 6 6 0 0 1 1 .7l-1 1.3a1 1 0 0 1-.3.3.7.7 0 0 1-.4.1 1 1 0 0 1-.5-.1l-.7-.4a3.8 3.8 0 0 0-.7-.3 3.9 3.9 0 0 0-.7-.1 6.7 6.7 0 0 0-.8 0 3.8 3.8 0 0 0-1.6.2 3.5 3.5 0 0 0-1.1.9 4 4 0 0 0-.8 1.3 5.5 5.5 0 0 0-.2 1.7 5.7 5.7 0 0 0 .2 2 4 4 0 0 0 .8 1.3 3.5 3.5 0 0 0 1.3.9 4 4 0 0 0 1.5.2z"/><path class="cls-3" d="M260 161.1v4.5h-3.1v-13.3h4.7a7.7 7.7 0 0 1 2.4.4 4.7 4.7 0 0 1 1.6.9 3.4 3.4 0 0 1 1 1.4 4.5 4.5 0 0 1 .3 1.7 4.9 4.9 0 0 1-.3 1.8 3.5 3.5 0 0 1-1 1.4 4.5 4.5 0 0 1-1.7 1 7.6 7.6 0 0 1-2.4.2zm0-2.3h1.6a2 2 0 0 0 2.2-2.2 2.4 2.4 0 0 0 0-.8 1.7 1.7 0 0 0-.5-.6 2 2 0 0 0-.7-.4 3.4 3.4 0 0 0-1-.2H260zM275 160.5v5h-3v-5l-4.8-8.2h2.7a1 1 0 0 1 .6.2 1.3 1.3 0 0 1 .4.5l1.9 3.8.4.9c.1.3.3.5.3.8a6.5 6.5 0 0 1 .4-.8l.4-.9 1.8-3.8a1.6 1.6 0 0 1 .2-.2 1.1 1.1 0 0 1 .2-.2.8.8 0 0 1 .3-.2 1 1 0 0 1 .3 0h2.8zM290.4 152.3v2.5h-3.7v10.8h-3.1v-10.8h-3.7v-2.5zM303.2 165.6H300V160h-5.4v5.6h-3v-13.3h3v5.6h5.4v-5.6h3zM318.4 159a7 7 0 0 1-.5 2.6 6.3 6.3 0 0 1-1.4 2.1 6.3 6.3 0 0 1-2.1 1.5 7.8 7.8 0 0 1-5.7 0 6.3 6.3 0 0 1-3.5-3.6 7.4 7.4 0 0 1 0-5.3 6.3 6.3 0 0 1 1.4-2.2 6.6 6.6 0 0 1 2.1-1.4 7.5 7.5 0 0 1 2.9-.5 7.3 7.3 0 0 1 2.8.5 6.4 6.4 0 0 1 2.1 1.4 6.3 6.3 0 0 1 1.4 2.2 7 7 0 0 1 .5 2.6zm-3.1 0a5.8 5.8 0 0 0-.3-1.8 3.7 3.7 0 0 0-.7-1.4 3 3 0 0 0-1.2-.8 4 4 0 0 0-1.6-.3 4.1 4.1 0 0 0-1.5.3 3 3 0 0 0-1.2.8 3.7 3.7 0 0 0-.7 1.4 5.8 5.8 0 0 0-.3 1.7 5.7 5.7 0 0 0 .3 1.8 3.6 3.6 0 0 0 .7 1.3 3 3 0 0 0 1.2.9 4 4 0 0 0 1.6.3 3.9 3.9 0 0 0 1.5-.3 3 3 0 0 0 1.2-.9 3.6 3.6 0 0 0 .7-1.3 5.7 5.7 0 0 0 .3-1.8zM321.8 152.3a.8.8 0 0 1 .3.1.8.8 0 0 1 .2.2 2.8 2.8 0 0 1 .2.2l6.3 8v-.8-7.7h2.6v13.3h-1.6a1.6 1.6 0 0 1-.6-.2 1.4 1.4 0 0 1-.4-.4l-6.3-7.8v8.3h-2.7v-13.2h1.7z"/><path d="M66 55c-13.7 0-12.8 6-12.8 6v6.2h13.1V69H48s-8.8-1-8.8 12.9S47 95.2 47 95.2h4.6v-6.4S51.2 81 59 81h13s7.3.1 7.3-7V62S80.4 55 66.1 55zm-7.2 4.2a2.4 2.4 0 0 1 2.4 2.3 2.4 2.4 0 0 1-2.4 2.4 2.4 2.4 0 0 1-2.3-2.4 2.4 2.4 0 0 1 2.3-2.3z" fill="url(#linear-gradient-2)"/><path class="cls-2" d="M46.8 95.5a6.4 6.4 0 0 1-4.2-1.8c-2.4-2.3-3.7-6.3-3.7-11.9 0-5.2 1.3-9 3.7-11.2a7.4 7.4 0 0 1 5.4-1.9h18v-1.3H53V61a4 4 0 0 1 1-2.9c1.3-1.5 4.5-3.4 12-3.4 6 0 10.2 1.3 12.3 3.7a5.1 5.1 0 0 1 1.3 3.8V74a7 7 0 0 1-2 5.2 8.6 8.6 0 0 1-5.6 2.2H59a7 7 0 0 0-5.3 2 8.3 8.3 0 0 0-2 5.4v6.7h-5zm.8-26.3A7.1 7.1 0 0 0 43 71c-2.3 2.1-3.5 5.8-3.5 10.8 0 5.5 1.2 9.3 3.4 11.5a5.8 5.8 0 0 0 4 1.7h4.3v-6.2a8.8 8.8 0 0 1 2.2-5.8 7.5 7.5 0 0 1 5.6-2.2h13a8.2 8.2 0 0 0 5.3-2 6.5 6.5 0 0 0 1.7-4.7V62a4.7 4.7 0 0 0-1.2-3.4c-1.3-1.6-4.5-3.4-11.7-3.4S55.7 57 54.4 58.4a3.3 3.3 0 0 0-1 2.5v6h13.2v2.4H48a2.2 2.2 0 0 0-.4 0zm11.3-5a2.6 2.6 0 0 1-1.9-.8 2.6 2.6 0 0 1-.8-1.9 2.7 2.7 0 0 1 .8-1.9 2.6 2.6 0 0 1 1.9-.7 2.6 2.6 0 0 1 0 5.2zm0-4.8a2 2 0 0 0-1.5.6 2 2 0 0 0-.6 1.5 2 2 0 0 0 2 2.1 2 2 0 0 0 1.5-3.6 2 2 0 0 0-1.4-.6z"/><path d="M66.4 108.8c13.7 0 12.8-6 12.8-6v-6.2h-13v-1.8h18.2s8.8 1 8.8-12.9-7.6-13.3-7.6-13.3H81V75s.3 7.7-7.5 7.7h-13s-7.4-.1-7.4 7v11.9s-1 7.2 13.3 7.2zm7.2-4.2a2.4 2.4 0 0 1-2.4-2.3 2.4 2.4 0 0 1 2.4-2.4 2.4 2.4 0 0 1 2.4 2.4 2.4 2.4 0 0 1-2.4 2.3z" fill="url(#linear-gradient-3)"/><path class="cls-2" d="M66.4 109c-6 0-10.1-1.2-12.2-3.6a5.1 5.1 0 0 1-1.3-3.8V89.7a7 7 0 0 1 1.9-5.1 8.6 8.6 0 0 1 5.6-2.2h13a7 7 0 0 0 5.3-2 8.4 8.4 0 0 0 2-5.4v-6.7h4.8a6.2 6.2 0 0 1 4.4 1.8c2.4 2.3 3.6 6.2 3.6 11.8 0 5.3-1.3 9-3.7 11.2a7.4 7.4 0 0 1-5.4 2h-18v1.3h13.1v6.4a4 4 0 0 1-1 2.9c-1.4 1.5-4.6 3.4-12.1 3.4zm-6-26a8.2 8.2 0 0 0-5.2 2 6.4 6.4 0 0 0-1.8 4.8v11.9a4.7 4.7 0 0 0 1.2 3.4c1.4 1.6 4.5 3.5 11.8 3.5 7.3 0 10.4-1.8 11.6-3.2a3.4 3.4 0 0 0 1-2.5v-6H65.8v-2.4h18.7a7 7 0 0 0 5-1.8C91.8 90.7 93 87 93 82c0-5.4-1.2-9.2-3.4-11.4a5.8 5.8 0 0 0-4-1.7h-4.3V75a8.7 8.7 0 0 1-2.2 5.8 7.5 7.5 0 0 1-5.7 2.2h-13zm13.2 22a2.6 2.6 0 1 1 0-5.3 2.6 2.6 0 1 1 0 5.3zm0-4.7a2 2 0 0 0 0 4.2 2 2 0 0 0 0-4.2zM58.3 127.7a1.8 1.8 0 1 0 2.5-.4 1.8 1.8 0 0 0-2.5.4zm.6.4a1 1 0 1 1 .2 1.5 1 1 0 0 1-.2-1.5zM88.3 129.3a1.8 1.8 0 1 0 2.5-.4 1.8 1.8 0 0 0-.8-.3v-5.4a1.8 1.8 0 0 0 1.2-.8 1.8 1.8 0 1 0-2.5.4 2 2 0 0 0 .5.3v5.5a1.8 1.8 0 0 0-1 .7zm.5-8.6a1 1 0 1 1 .3 1.5 1 1 0 0 1-.3-1.5zm0 9a1 1 0 1 1 .3 1.5 1 1 0 0 1-.3-1.5zM59.8 137.3a1.8 1.8 0 1 0-2.6.4 2.3 2.3 0 0 0 .6.3v17.2a1.8 1.8 0 1 0 1.4.3 2 2 0 0 0-.5-.3V138a1.8 1.8 0 0 0 1-.7zm-2.4-1.7a1 1 0 1 1 1.8 1.3 1 1 0 0 1-1.8-1.3zm1.6 22a1 1 0 1 1-.3-1.5 1 1 0 0 1 .3 1.5zM99.2 108.6a1.8 1.8 0 1 0-.4-2.5 1.8 1.8 0 0 0 .4 2.5zm.2-2a1 1 0 1 1 .2 1.4 1 1 0 0 1-.2-1.5zM48.2 139.3a1.8 1.8 0 1 0-2.5.4 2.1 2.1 0 0 0 .4.2v11.7a1.8 1.8 0 1 0 1.4.3 2 2 0 0 0-.4-.3L47 140a1.8 1.8 0 0 0 1.2-.7zm-2.3-1.7a1 1 0 0 1 1.7 1.3 1.1 1.1 0 0 1-1.5.2 1 1 0 0 1-.2-1.5zm1.4 16.4a1 1 0 0 1-1.5.2 1 1 0 1 1 1.3-1.7 1 1 0 0 1 .2 1.5z"/><path class="cls-2" d="M42.1 147.4a2 2 0 0 0-.5-.3v-16.6l4-4a1.8 1.8 0 1 0-.7-.6l-4.2 4.2v17a1.8 1.8 0 0 0-1.1.7 1.8 1.8 0 1 0 2.5-.4zm3.5-23a1 1 0 1 1 .2 1.4 1 1 0 0 1-.2-1.5zm-3.7 25a1 1 0 1 1-.2-1.4 1 1 0 0 1 .2 1.5zM53.5 147.8a1.9 1.9 0 0 0-.7-.3c-.2-1.4 0-14.4 0-23l4.3-6.5a1.8 1.8 0 0 0 .8.2 1.7 1.7 0 1 0-1.4-.7l-4.4 6.6v.2c-.3 17.3-.2 22 0 23.2a1.8 1.8 0 0 0-1.1.7 1.8 1.8 0 1 0 2.5-.4zm-.2 2.1a1 1 0 1 1-1.8-1.2 1 1 0 0 1 1.8 1.2zM66.4 158.3a2 2 0 0 0-.6-.2v-23.7l-4.6-4.6-.6.7 4.3 4.3V158a1.8 1.8 0 1 0 1.5.3zm-.2 2.1a1 1 0 0 1-1.6.3 1 1 0 0 1 1.3-1.8 1 1 0 0 1 .3 1.5z"/><path class="cls-2" d="M73.8 150.5a1.4 1.4 0 0 0-.4-.2v-17.8l-8.3-8.3a1.7 1.7 0 0 0 0-2.3 1.7 1.7 0 1 0-.8 2.8l8.1 8.1v17.4a1.8 1.8 0 0 0-1.1.7 1.8 1.8 0 1 0 2.5-.4zm-.2 2.1a1 1 0 1 1-.2-1.5 1 1 0 0 1 .2 1.5z"/><path class="cls-2" d="M78.1 142.8a1.8 1.8 0 1 0 1.8-.8v-14.6l-9-9a1.7 1.7 0 1 0-2.3.5 1.7 1.7 0 0 0 1.7 0l8.8 8.8V142a1.8 1.8 0 0 0-1 .8zm2.3 1.6a1 1 0 1 1-.2-1.5 1 1 0 0 1 .2 1.5z"/><path class="cls-2" d="M123.6 101c-6.1-3.6-8.3-17-7.4-20.4a29 29 0 0 0-1.8-16.4C111 53.9 102 41 78.1 37.8a48.4 48.4 0 0 0-32.3 7l-1 .7-1 .7-4.1 3.1-.5.4-.3.3-1 .8a55.7 55.7 0 0 0-14.3 19.7c-6.3 15 1 32.5 7.2 47.8l3.4 8.3c2.7 7 2.7 13.5 0 19a18.4 18.4 0 0 1-4.8 6.4l1.5.3c.1-.1 2.3-1.6 4.4-6 2-4.1 3.6-11 0-20.1L33 120h12.8l4.3-4.3a1.7 1.7 0 1 0-.7-1 2 2 0 0 0 .2.3l-4.1 4.1H32.5l-.5-1.3-1.8-4.3H44l5.6-5.5a1.8 1.8 0 0 0 1.6 0 1.7 1.7 0 1 0-2.3-.7v.2l-5.3 5.3H30l-1.4-3.7h5.9l7.3-2.3a1.9 1.9 0 0 0 .6.6 1.8 1.8 0 1 0-.4-2.5 1.8 1.8 0 0 0-.4 1.1l-7.3 2.3h-6l-1.6-4.4 2.8-2.8H42a1.8 1.8 0 0 0 .3.5 1.7 1.7 0 1 0-.5-1.3H29l-2.7 2.7c-1-2.8-1.8-5.5-2.4-8.3h11a1.7 1.7 0 0 0 3 0 1.7 1.7 0 1 0-3.2-.8h-11a52.8 52.8 0 0 1-1.2-7.8l.6-.6h9.3a1.7 1.7 0 0 0 3.3.6 1.7 1.7 0 0 0-3.1-1.4h-9.8l-.3.3a36.5 36.5 0 0 1 .4-7H32a1.8 1.8 0 1 0 .3-1.5 1.8 1.8 0 0 0-.3.7H23a29.4 29.4 0 0 1 1.8-6.2l1.4-3h1.1l7.6 3.2a1.8 1.8 0 0 0 3.2 1.5 1.8 1.8 0 0 0-.4-2.5 1.8 1.8 0 0 0-2.4.3l-7.7-3.3h-1a53.4 53.4 0 0 1 5-7.7H35l4.4 4.4a1.7 1.7 0 0 0 0 1.5 1.7 1.7 0 1 0 .9-2.3 1.8 1.8 0 0 0-.3.2l-4.7-4.6h-3.2a56.5 56.5 0 0 1 6.3-6.7l.6.6.3.4 3.7 3.7h5.4a1.7 1.7 0 1 0 1.3-2.7 1.7 1.7 0 0 0-1.5 1.8h-4.8l-4-4.1-.4-.2.4-.4a55.3 55.3 0 0 1 4.6-3.6l.4-.3 1.7-1v.6l5 5h5a1.7 1.7 0 1 0 0-.8h-4.7L47 46.4v-.7a50.4 50.4 0 0 1 11.2-5V42l6.6 6.9a1.7 1.7 0 1 0 2.7-.7 1.7 1.7 0 0 0-2.2 0l-6.3-6.6v-1.3a47 47 0 0 1 10.4-1.7v3.4l1.3 1.9a1.7 1.7 0 0 0 2.4 2.5 1.7 1.7 0 0 0-1.7-3L70.1 42v-3.2a46.8 46.8 0 0 1 8 .4l-.8 1.2a1.8 1.8 0 1 0 .7.3l.9-1.4a60.2 60.2 0 0 1 9.2 2l-.6.8h-3l-7.2 7.5a1.7 1.7 0 1 0 .6.6l7-7.2h3l1-1.4a45 45 0 0 1 9 4l-4.5 4.6h-5.5l-4.8 3.8a1.8 1.8 0 1 0 .6.5l4.6-3.5h5.4l4.9-4.9a34.8 34.8 0 0 1 8.9 7.9H101l-4.4 4.4h-8.4a1.7 1.7 0 1 0 .3.8h8.4l4.4-4.4h6.8a34.5 34.5 0 0 1 4 7H93.8a1.7 1.7 0 1 0-2 2.4 1.7 1.7 0 0 0 2-1.3 1.1 1.1 0 0 0 0-.3h18.6l.8 2 .4 1.5h-5.2L99 69.7a1.7 1.7 0 0 0-1.5-.7 1.7 1.7 0 1 0 1.8 1.6l9.5-3.7h5.2c.4 1.5.8 2.9 1 4.2h-1.6l-2.2 2.3a1.2 1.2 0 0 0-.3-.3 1.8 1.8 0 1 0 .4 2.6 1.8 1.8 0 0 0 .3-1.6l2.2-2.2h1.3a19.8 19.8 0 0 1-.1 8.4 10.7 10.7 0 0 0-.3 2.8h-7l-6.9-5.1a1.8 1.8 0 1 0-2.6.6 1.8 1.8 0 0 0 2.1 0l7 5.3h7.4a33 33 0 0 0 1 6h-11.3l-4-4.2a1.7 1.7 0 0 0-.2-1.1 1.7 1.7 0 1 0-.7 2.3 1.6 1.6 0 0 0 .5-.4l4 4.2h12c1.3 4.6 3.6 9.3 7 11.3.7.4 1.5 1 1.4 1.6s-1 1.4-2.2 2l-10.4-10.4H99l-2-2v-.1a1.7 1.7 0 1 0-.5.8l2.2 2.1h12.9l10 10a31.9 31.9 0 0 1-5.7 2h-.2l-.9-2-5.3-5.3a1.8 1.8 0 1 0-.5.7l5 5 1 2a2.2 2.2 0 0 0-1.1 2l.3 2.2a21 21 0 0 1 .4 4c0 .9-1.8 1-1.8 1h-1l.4.9.5 1.3a6.8 6.8 0 0 1-1.1 4.7c-1.3 1.8-1 3-.4 5.3.5 1.6.9 3.9-.3 5.4l-.3.4-1.5-2.2.1-26.8v-.3l-6.8-4.3h-4.6l-5.5-4a1.7 1.7 0 0 0-1.2-2 1.7 1.7 0 1 0 .8 2.7l5.6 4.2h4.7l6.2 3.8-.2 26.7v.2l1.7 2.4a7.7 7.7 0 0 1-3.8 1h-3.8v-23l-3.6-3.6H95l-4.4-4.4a1.8 1.8 0 1 0-.6.6l4.6 4.7h3.6l3.1 3.1V137c-2.3 0-4.5 0-6.5.3v-19l-3.7-3.7h-3.5l-4.2-4.2a1.3 1.3 0 0 1 0-.1 1.8 1.8 0 1 0-2.4.4 1.8 1.8 0 0 0 1.7.2l4.6 4.5h3.5l3.1 3.2v18.7c-3.3.4-5.9 1.2-7 3l-.3.5-.5-14.3V124l-8.3-9.5a1.7 1.7 0 1 0-1.7.4 1.7 1.7 0 0 0 1 0l8.2 9.4v2l.6 16c-2.8 6-7.9 21.1-8.1 22l.7 1.4c.1-.2 7.3-21.4 9.5-24.7 1.6-2.6 8-2.7 14-2.8h4c2.7-.2 4.6-1 5.7-2.4 1.6-2.2.8-5.3.5-6.4-.6-2.5-.7-3 .2-4.4 1.2-1.7 1.8-4.4 1.3-5.8l-.2-.6a2.4 2.4 0 0 0 2.2-2 20.3 20.3 0 0 0-.5-4.3l-.3-2a1 1 0 0 1 .7-1l.3-.2h.1c1.5-.3 9.1-2.3 9.5-5.3.2-1.2-.5-2.1-2-3zm-81.1 4.3a1 1 0 1 1 .2 1.5 1.1 1.1 0 0 1-.2-1.5zM33 76.9a1 1 0 1 1 .2 1.5A1 1 0 0 1 33 77zm4.3-6.1a1 1 0 0 1-1.3 1.8 1 1 0 1 1 1.3-1.8zm40.5-28.1a1 1 0 1 1-.3-1.5 1 1 0 0 1 .3 1.5zM83.2 56a1 1 0 1 1-.2-1.5 1 1 0 0 1 .2 1.5zm27.5 19a1 1 0 1 1-.3-1.5 1 1 0 0 1 .3 1.6zm-12 2.8a1 1 0 1 1 1.5-.2 1 1 0 0 1-1.6.3zm8.5 22.8a1 1 0 1 1 1.5-.2 1 1 0 0 1-1.6.3zm-18.7 5a1 1 0 1 1 1.5-.2 1 1 0 0 1-1.5.3zm-7 4.3a1 1 0 0 1-.2-1.5 1 1 0 1 1 .2 1.5z"/></svg>