<svg height="40" viewBox="0 0 40 40" width="40" xmlns="http://www.w3.org/2000/svg"><g fill="none" fill-rule="evenodd"><circle cx="20" cy="20" fill="#8587de" fill-rule="nonzero" r="20"/><g fill="#fff" transform="translate(11 12)"><path d="m7.41796875 8.53333333h3.16406245v1.06666667h-3.16406245z"/><path d="m14.6031647 9.6h-2.9664459v.5333333c0 .2947222-.2359315.5333334-.5273438.5333334h-4.21875c-.29141234 0-.52734375-.2386112-.52734375-.5333334v-.5333333h-2.96644591c-.68183902 0-1.28485108-.43958332-1.50073243-1.09375001l-1.89610291-5.75388889v11.6476389c0 .8822222.7097168 1.6 1.58203125 1.6h14.83593755c.8723144 0 1.5820312-.7177778 1.5820312-1.6v-11.64722222l-1.8962402 5.75347221c-.2157441.65416669-.8187561 1.09375001-1.5005951 1.09375001z"/><path d="m11.109375 0h-4.21875c-.87231445 0-1.58203125.71777778-1.58203125 1.6v.53333333h-4.40126037l1.98893735 6.03541668c.07209781.21819442.27342225.36458332.50056461.36458332h2.96644591v-.53333333c0-.2947222.23593141-.53333333.52734375-.53333333h4.21875c.2914123 0 .5273438.23861113.5273438.53333333v.53333333h2.9664459c.2271423 0 .4284668-.1463889.5005646-.36458332l1.9890746-6.03541668h-4.4013977v-.53333333c0-.88222222-.7097167-1.6-1.5820312-1.6zm-4.74609375 2.13333333v-.53333333c0-.29430556.23634338-.53333333.52734375-.53333333h4.21875c.2910004 0 .5273438.23902777.5273438.53333333v.53333333z" fill-rule="nonzero"/></g></g></svg>