<svg xmlns="http://www.w3.org/2000/svg" width="485" height="244" fill="none"><g fill="#E7E7E7" opacity=".7"><path fill-rule="evenodd" d="m266.914 274.895 98.675-105.765 76.771 142.291-175.446-36.526zm-50.918 44.45-18.777-124.54 69.005 80.194-50.228 44.346zM82.121 94.974l21.404 35.985 40.925 68.934-218.432 8.616L82.121 94.974zm114.594 99.259c1.863 12.418 16.933 112.833 18.759 124.484l-70.418-118.738h-.001l-41.115-69.126-20.878-35.165 113.653 98.545zm168.362-25.163-98.559 105.641-69.212-80.433 167.771-25.208zm-220.304 31.368 70.389 118.56-113.463-82.707 43.074-35.853zm-217.319 8.425 216.824-8.552-42.969 35.766-173.855-27.214zm438.361-40.179a.206.206 0 0 0-.083-.08c-.01-.006-.02-.008-.031-.012-.015-.006-.027-.015-.043-.017-.013-.001-.025.004-.037.004-.008.001-.015-.004-.022-.003L196.97 193.913 82.374 94.549a.264.264 0 0 0-.071-.04.213.213 0 0 0-.245-.001L-74.778 208.575l-.005.008a.191.191 0 0 0-.064.089l-.005.019c-.003.013-.008.025-.008.038-.001.016.008.029.01.044.003.012-.002.024.002.035.003.009.01.015.013.023l.014.022c.02.029.045.055.076.071.019.009.04.016.062.019l175.961 27.549 114.448 83.424.018.009c.004.003.007.007.012.009.009.005.019.008.028.011l.01.004.004.001h.009l.011.001.027.004c.014 0 .027-.002.041-.004l.02-.004.011-.001.004-.003c.013-.004.023-.012.035-.019.009-.005.019-.01.027-.016l.002-.002.002-.001 50.587-44.663 176.136 36.67a.204.204 0 0 0 .222-.296l-77.118-142.932z" clip-rule="evenodd"/><path d="m266.914 274.895-.182-.171-.303.325.434.09.051-.244zm98.675-105.765.22-.119-.166-.306-.237.255.183.17zm76.771 142.291-.051.245.526.109-.255-.473-.22.119zm-226.364 7.924-.247.037.069.454.344-.304-.166-.187zm-18.777-124.54.19-.163-.566-.658.129.859.247-.038zm69.005 80.194.166.187.185-.163-.161-.187-.19.163zM82.121 94.974l.215-.128-.14-.235-.222.16.147.203zm21.404 35.985.215-.128h-.001l-.214.128zm40.925 68.934.01.25.419-.017-.214-.36-.215.127zm-218.432 8.616-.147-.203-.666.485.823-.033-.01-.249zm270.697-14.276.247-.037-.014-.091-.07-.061-.163.189zm18.759 124.484-.215.127.462-.166-.247.039zm-70.418-118.738.215-.127-.038-.063-.065-.033-.112.223zm-.001 0-.111.224.762.381-.436-.733-.215.128zm-41.115-69.126-.215.128.215-.128zM83.062 95.688l.164-.189-.379.317.215-.128zm282.015 73.382.182.171.49-.525-.71.107.038.247zm-98.559 105.641-.19.163.182.211.191-.204-.183-.17zm-69.212-80.433-.037-.247-.448.067.295.343.19-.163zm-52.533 6.16.215-.128-.149-.252-.225.188.159.192zm70.389 118.56-.147.202.362-.33-.215.128zm-113.463-82.707-.16-.192-.247.205.26.189.147-.202zm-174.245-27.428-.01-.25-.028.497.038-.247zm216.824-8.552.16.192.566-.471-.736.029.01.25zm-42.969 35.766-.039.247.112.018.087-.073-.16-.192zm264.506-67.393.22-.119-.002-.003-.218.122zm-.083-.08.124-.217-.004-.003-.12.22zm-.031-.012.088-.234h-.001l-.087.234zm-.043-.017-.037.248.006.001.031-.249zm-.037.004.01.25h.003l-.013-.25zm-.022-.003-.029-.249-.008.001.037.248zM196.97 193.913l-.164.189.087.075.114-.017-.037-.247zM82.374 94.549l.164-.189-.003-.002-.161.191zm-.071-.04-.148.203.031.022.037.013.08-.237zm-.08-.035-.052.244.004.001.047-.245zm-.165.034-.147-.203v.001l.147.202zM-74.778 208.575l-.147-.202-.006.005-.007.005.16.192zm-.005.008.156.195.007-.005.006-.006-.169-.184zm-.064.089.236.085v-.003l-.236-.082zm-.005.019-.24-.07-.003.013.243.057zm-.008.038.25.009-.25-.009zm.01.044.248-.04-.001-.004-.246.044zm.002.035-.237.081.003.008.234-.089zm.013.023-.224.111.004.006.22-.117zm.014.022-.208.139.003.005.205-.144zm.138.09-.041.247h.002l.039-.247zm175.961 27.549.148-.202-.049-.035-.06-.01-.039.247zm114.448 83.424.151-.199-.004-.003-.147.202zm.018.009.129-.214-.004-.002-.125.216zm.04.02.084-.236-.009-.003-.075.239zm.01.004-.084.235.023.009.024.003.037-.247zm.004.001-.112.224.027.013.03.007.055-.244zm.009 0-.047.246.01.002.01.001.027-.249zm.011.001.036-.247-.009-.001-.027.248zm.027.004-.016.249.007.001h.007l.002-.25zm.041-.004.041.247.007-.002-.048-.245zm.02-.004-.059-.243-.009.002-.009.003.077.238zm.011-.001-.077-.238-.01.003-.008.004.095.231zm.004-.003.077.238.011-.003-.088-.235zm.035-.019.126.216.008-.005-.134-.211zm.027-.016.159.192.009-.007.008-.008-.176-.177zm.002-.002-.122-.218-.014.008-.012.009.148.201zm.002-.001-.112.224.151.075.127-.112-.166-.187zm50.587-44.663.051-.245-.122-.026-.094.083.165.188zm176.136 36.67-.051.245.051-.245zm.206-.077.2.15-.2-.15zm.016-.219-.22.119v.001l.22-.12zm-175.836-36.551 98.674-105.764-.365-.341-98.674 105.764.365.341zm98.272-105.816L442.14 311.54l.44-.238-76.771-142.291-.44.238zm77.042 141.927L266.965 274.65l-.102.489 175.446 36.527.102-.49zm-226.167 8.132-18.778-124.54-.494.075 18.777 124.539.495-.074zm-19.214-124.34 69.005 80.194.379-.326-69.005-80.194-.379.326zm69.029 79.843-50.228 44.346.331.375 50.228-44.346-.331-.375zM81.906 95.101l21.404 35.986.429-.256-21.403-35.985-.43.256zm21.404 35.986 40.925 68.934.43-.255-40.925-68.935-.43.256zm41.13 68.556-218.432 8.616.02.499 218.432-8.615-.02-.5zm-218.275 9.068L82.268 95.176l-.294-.404L-74.13 208.306l.294.405zm270.302-14.441c1.864 12.417 16.934 112.834 18.76 124.486l.494-.078c-1.826-11.65-16.896-112.064-18.759-124.482l-.495.074zm19.222 124.319-70.418-118.737-.43.255 70.418 118.737.43-.255zm-70.521-118.833h-.001l-.223.447.111-.224.112-.223-.223.447.224-.447zm.102.095-41.115-69.125-.43.255 41.115 69.126.43-.256zm-41.115-69.125L83.277 95.561l-.43.255 20.878 35.165.43-.255zM82.898 95.877l113.653 98.545.327-.378L83.226 95.499l-.328.378zM364.894 168.9l-98.559 105.64.366.341 98.558-105.64-.365-.341zm-98.187 105.648-69.212-80.433-.379.326 69.212 80.433.379-.326zm-69.364-80.023 167.771-25.208-.075-.494-167.77 25.208.074.494zm-52.784 6.04 70.388 118.561.43-.256-70.389-118.56-.429.255zm70.75 118.231-113.463-82.707-.294.404L215.015 319.2l.294-.404zm-113.45-82.312 43.074-35.854-.319-.384-43.075 35.853.32.385zm-174.395-27.371 216.824-8.552-.02-.5-216.824 8.552.02.5zm216.654-8.994-42.969 35.766.32.384 42.969-35.766-.32-.384zm-42.771 35.711-173.854-27.214-.077.494 173.854 27.214.077-.494zm264.686-67.268a.454.454 0 0 0-.177-.175l-.247.434c.003.002.001.002-.002-.001l-.011-.015.437-.243zm-.181-.178a.42.42 0 0 0-.053-.023l-.011-.003h.001l-.176.468.017.006.002.001h.002l.001.001-.022-.01.239-.44zm-.064-.026.009.003-.004-.001-.009-.005a.31.31 0 0 0-.096-.028l-.061.497a.2.2 0 0 1-.037-.009l-.014-.005h.001l.006.003.03.013.175-.468zm-.094-.03c-.048-.007-.087 0-.099.002l-.008.002c-.001 0-.001 0 0 0s.009-.002.021-.002l.026.499a.22.22 0 0 0 .039-.005l.009-.001.002-.001-.018.003c-.011 0-.026 0-.045-.002l.073-.495zm-.084.001c.026-.001.047.003.058.005l.011.003h.001l-.01-.002a.264.264 0 0 0-.1-.008l.058.497a.236.236 0 0 1-.068-.002l-.016-.004-.005-.001h.001l.001.001.005.001.017.004a.286.286 0 0 0 .068.006l-.021-.5zm-.048-.001-168.629 25.338.074.494 168.629-25.337-.074-.495zm-168.428 25.396L82.538 94.36l-.328.378 114.596 99.364.328-.378zm-114.6-99.366a.45.45 0 0 0-.151-.085l-.16.474-.003-.001-.007-.005.322-.383zm-.084-.05a.458.458 0 0 0-.18-.08l-.095.491c-.013-.002-.019-.007-.02-.007l.295-.404zm-.177-.08a.467.467 0 0 0-.362.078l.293.405a.04.04 0 0 1-.033.007l.102-.49zm-.362.078L-74.925 208.373l.295.404L82.205 94.711l-.294-.405zM-74.938 208.383a.232.232 0 0 0-.052.06l-.01.017-.003.005v.002l.001-.005.009-.014a.198.198 0 0 1 .041-.049l.338.368a.264.264 0 0 0 .045-.054l.01-.016c0-.002 0-.004.002-.005v-.002l-.002.005-.009.016c-.009.013-.024.035-.05.056l-.32-.384zm0 .004a.442.442 0 0 0-.145.203l.472.164a.037.037 0 0 1-.007.014.031.031 0 0 1-.01.01l-.31-.391zm-.144.201c-.007.019-.01.035-.012.04v.002l.002-.009.48.141.005-.019.001-.006v-.002a.073.073 0 0 1-.005.022l-.471-.169zm-.013.046.002-.006-.002.003-.002.009a.29.29 0 0 0-.013.079l.5.019-.004.03-.003.012v-.001l.002-.006.007-.024-.487-.115zm-.015.085a.288.288 0 0 0 .018.115l.003.008c0 .002 0 .001 0 0 0-.002-.004-.012-.006-.025l.492-.088c-.004-.021-.01-.038-.013-.047l-.003-.011-.001-.002v-.001l.005.019c.003.013.005.03.004.051l-.5-.019zm.014.094c-.003-.02-.003-.035-.003-.042v-.006.005c0 .005-.002.021 0 .04 0 .021.004.048.014.079l.473-.162a.22.22 0 0 1 .012.062v.004a.257.257 0 0 0-.002-.06l-.494.08zm.014.084c.007.018.015.033.02.044l.014.021.002.002v.001l-.001-.002-.012-.021.448-.222-.018-.032-.005-.007-.002-.002v-.001l.006.01.016.032-.468.177zm.027.051a.395.395 0 0 0 .026.044l.416-.277-.002-.002.001.001-.441.234zm.03.049a.457.457 0 0 0 .168.15l.224-.447c.01.005.016.01.018.012l-.002-.002-.409.287zm.168.15a.481.481 0 0 0 .133.043l.082-.493.009.003-.224.447zm.135.043 175.962 27.549.077-.494-175.962-27.549-.077.494zm175.853 27.504 114.448 83.424.294-.404-114.447-83.424-.295.404zm114.445 83.422a.272.272 0 0 0 .061.035l.003.001-.002-.001-.02-.01.251-.432-.029-.015-.006-.003h-.002l.014.006c.008.004.019.01.031.02l-.301.399zm.038.023c-.013-.008-.022-.016-.026-.019l-.004-.003s-.001-.001 0 0l.001.001.018.014a.247.247 0 0 0 .041.026l.224-.447c.016.008.027.016.035.021l.008.007.003.003c.001 0 .001 0 0 0l-.001-.002-.007-.006a.213.213 0 0 0-.033-.023l-.259.428zm.03.019c.031.015.06.024.066.026l.149-.478-.005-.001c-.001-.001-.001-.001 0 0l.014.006-.224.447zm.057.022-.009-.003-.002-.001.006.003.014.005.168-.471.009.004h.001l-.006-.002-.014-.006-.167.471zm.056.016c-.015-.002-.028-.006-.036-.008l-.021-.008-.014-.006.224-.447-.006-.003-.012-.006c-.009-.003-.031-.012-.061-.017l-.074.495zm-.014-.002a.29.29 0 0 0 .059.007l.018-.001.008-.001h-.002l-.012.001c-.011 0-.03 0-.054-.004l.094-.491c-.025-.005-.046-.005-.058-.005l-.015.001-.003.001.006-.001h.015a.188.188 0 0 1 .054.005l-.11.488zm.037.005h.005l.005.001.055-.497-.005-.001h-.005l-.055.497zm.001 0c.001 0 .025.004.048.005l.032-.499.005.001-.004-.001-.008-.001-.073.495zm.062.006a.575.575 0 0 0 .084-.007l-.083-.493h.002l-.003.5zm.091-.009-.002.001h.002l.005-.001.044-.011-.154-.476.024-.006c.001 0 .001 0 0 0h-.001l-.002.001-.013.002.097.49zm.031-.006a.213.213 0 0 1-.04.006l-.007.001.002-.001.03-.002c.016-.003.038-.007.062-.017l-.19-.462a.204.204 0 0 1 .056-.016l.025-.002s.001 0 0 0h-.011c-.009.001-.025.002-.045.007l.118.486zm.029-.007c.02-.006.035-.014.045-.019l.012-.007.003-.002.001-.001-.003.002-.011.006a.18.18 0 0 1-.043.019l-.154-.475c-.02.006-.035.014-.045.019l-.012.007-.003.002-.001.001.003-.002.011-.006a.18.18 0 0 1 .043-.019l.154.475zm.015-.005a.402.402 0 0 0 .055-.027l.014-.008.004-.003-.252-.432-.013.008-.003.002.02-.009.175.469zm.081-.043-.003.002.003-.001.005-.003c.008-.005.027-.016.047-.033l-.319-.385.016-.011.005-.004-.001.001-.004.002-.017.01.268.422zm.069-.05a.247.247 0 0 1-.052.039l-.003.002h.001v-.001l.003-.001.026-.017-.297-.402a.142.142 0 0 1 .025-.016l.002-.002-.001.001-.002.001c-.007.004-.03.017-.054.041l.352.355zm-.051.039.012-.008a.242.242 0 0 1-.169.036.254.254 0 0 1-.076-.023l.224-.448a.245.245 0 0 0-.076-.023.25.25 0 0 0-.091.003c-.045.01-.077.032-.079.033l.01-.006.245.436zm.045-.032 50.587-44.663-.331-.375-50.587 44.664.331.374zm50.37-44.606 176.136 36.671.102-.49-176.136-36.67-.102.489zm176.136 36.671a.454.454 0 0 0 .457-.172l-.4-.3a.045.045 0 0 1 .045-.018l-.102.49zm.457-.172a.455.455 0 0 0 .036-.488l-.44.239a.047.047 0 0 1 .004-.05l.4.299zm.036-.487-77.118-142.933-.44.237 77.118 142.933.44-.237z"/></g></svg>