<svg height="40" viewBox="0 0 40 40" width="40" xmlns="http://www.w3.org/2000/svg"><g fill="none" fill-rule="evenodd"><circle cx="20" cy="20" fill="#ffb335" fill-rule="nonzero" r="20"/><g fill="#fff" transform="translate(11 11)"><path d="m9 0c-3.79481505 0-6.88238525 3.0875702-6.88238525 6.88238525v6.35284425c0 .875885.71246337 1.5883484 1.58821105 1.5883484.87588502 0 1.5883484-.7124634 1.5883484-1.5883484v-5.29403689c0-.87574767-.71246338-1.58821105-1.5883484-1.58821105-.17825316 0-.3468933.03611756-.50715637.09049989.22590637-3.00627138 2.73875428-5.38467406 5.80133057-5.38467406 3.0609283 0 5.5730896 2.37620542 5.8010559 5.38041684-.1593018-.05451964-.3289032-.08624267-.5068817-.08624267-.875885 0-1.5883484.71246338-1.5883484 1.58821105v5.29403689c0 .875885.7124634 1.5883484 1.5883484 1.5883484.1864929 0 .3629608-.0381775.5294037-.0975037v.6269074c0 .292099-.237854.5294037-.5294037.5294037h-3.8034668c-.2193146-.6149597-.80145263-1.0588074-1.4907074-1.0588074-.87574767 0-1.58821105.7124633-1.58821105 1.588211s.71246338 1.5882111 1.58821105 1.5882111c.68925477 0 1.2713928-.443985 1.4907074-1.0588074h3.8034668c.8757477 0 1.5882111-.7124633 1.5882111-1.588211 0-3.1843872 0-5.2827759 0-8.47059635 0-3.79481505-3.0875702-6.88238525-6.8823853-6.88238525z"/><path d="m16.9411926 7.50929259v6.15783691c.6148224-.2191772 1.0588074-.8013153 1.0588074-1.4907074v-3.1764221c0-.68925477-.443985-1.2713928-1.0588074-1.49070741z"/><path d="m0 9v3.1764221c0 .6893921.44398498 1.2715302 1.05880739 1.4907074v-6.15783691c-.61482241.21931461-1.05880739.80145264-1.05880739 1.49070741z"/></g></g></svg>